<svg id="Layer_1" height="512" viewBox="0 0 512 512" width="512" xmlns="http://www.w3.org/2000/svg" data-name="Layer 1"><g id="_Path_" data-name=" Path "><path d="m340.88 28h-237.88v455.97l38.305-30.5 38.252 30.5 38.227-30.5 38.213 30.5 38.206-30.5 38.204 30.5 38.296-30.5 38.297 30.5v-385.04z" fill="#f4d8a2"/></g><path d="m340.88 28.03 67.91 70.9h-67.91z" fill="#f3ce7d"/><path d="m103 28v455.97l30-23.887v-432.083z" fill="#d6ba8e"/><path d="m164 230h104v12h-104z" fill="#ba9e78"/><path d="m200.629 179h-3.258a16.408 16.408 0 0 1 -14.606-16h-12a28.242 28.242 0 0 0 21.235 27.2v12.8h12v-12.37a28.231 28.231 0 0 0 -5-56.017 16.33 16.33 0 0 1 0-32.659 16.062 16.062 0 0 1 16.235 16.046h12c0-13-10.044-25.036-23.235-27.4v-13.6h-12v14.023a28.236 28.236 0 0 0 7 55.59 16.234 16.234 0 0 1 1.629 32.387z" fill="#eb7288"/><g fill="#ba9e78"><path d="m164 270h184v12h-184z"/><path d="m164 310h184v12h-184z"/><path d="m164 350h184v12h-184z"/><path d="m164 390h184v12h-184z"/></g><path d="m127 74h12v15h-12z" fill="#fff"/><path d="m127 101h12v155h-12z" fill="#fff"/></svg>