<svg id="Layer_1" height="512" viewBox="0 0 512 512" width="512" xmlns="http://www.w3.org/2000/svg" data-name="Layer 1"><g id="_Path_" data-name=" Path "><path d="m116 79v410h280v-410zm194 66h-108v-33h108z" fill="#9fe2e0"/></g><path d="m337.52 178v162.04h-163.04v-162.04z" fill="#ccd3df"/><path d="m199.48 203h113.04v112.04h-113.04z" fill="#b0b5ca"/><path d="m234 23h44v102h-44z" fill="#d4e1f4"/><path d="m116 79h30v410h-30z" fill="#8ececb"/><g fill="#74ada9"><path d="m172 368h78v12h-78z"/><path d="m172 394h168v12h-168z"/><path d="m172 420h168v12h-168z"/><path d="m172 446h168v12h-168z"/></g><path d="m141 104h12v15h-12z" fill="#fff"/><path d="m141 131h12v155h-12z" fill="#fff"/></svg>