<svg id="Layer_1" height="512" viewBox="0 0 512 512" width="512" xmlns="http://www.w3.org/2000/svg" data-name="Layer 1"><path d="m432 295.14v-267.41l-281 78.05-1 311.4a38.284 38.284 0 1 0 12 20.192v-238.712l258-71.483v149.9a38.116 38.116 0 1 0 12 18.061z" fill="#9fe2e0"/><g fill="#8ececb"><path d="m387.04 306.33a38.243 38.243 0 0 1 23.292-35.174 38.212 38.212 0 1 0 .028 70.352 38.228 38.228 0 0 1 -23.32-35.178z"/><path d="m116.32 445.92a38.36 38.36 0 0 1 23.315-35.3 38.348 38.348 0 1 0 0 70.592 38.36 38.36 0 0 1 -23.315-35.292z"/><path d="m150.56 105.78v96.05l30-8.312v-96.05z"/></g><path d="m173.197 120.854h14.777v12h-14.777z" fill="#fff" transform="matrix(.965 -.26 .26 .965 -26.804 51.405)"/><path d="m197.33 102.231h104.616v12h-104.616z" fill="#fff" transform="matrix(.966 -.26 .26 .966 -19.571 68.738)"/></svg>