<svg id="Layer_1" height="512" viewBox="0 0 512 512" width="512" xmlns="http://www.w3.org/2000/svg" data-name="Layer 1"><g id="_Path_" data-name=" Path "><path d="m103 27v458h301.37.63v-458z" fill="#dfe8f4"/><path d="m59.35 26.81h44v458.38h-44z" fill="#b3d1e7"/></g><path d="m285.19 203h-62.45a75.37 75.37 0 0 0 -41.74 67.39v53.61h146v-53.61a75.435 75.435 0 0 0 -41.81-67.39z" fill="#74b4e8"/><path d="m404.58 403.02h48.07v82.17h-48.07z" fill="#9fe2e0"/><path d="m404.58 321.17h48.07v81.85h-48.07z" fill="#bad79d"/><path d="m404.58 218.85h48.07v102.32h-48.07z" fill="#f3ce7d"/><path d="m404.58 116.53h48.07v102.32h-48.07z" fill="#eb7288"/><path d="m103 27h30v458h-30z" fill="#a7c2d3"/><path d="m252.74 203h-30a75.37 75.37 0 0 0 -41.74 67.39v53.61h30v-53.61a75.37 75.37 0 0 1 41.74-67.39z" fill="#66a7d3"/><path d="m285.19 203.05a46.558 46.558 0 1 1 15.33-34.53 46.392 46.392 0 0 1 -15.33 34.53z" fill="#ffd8b7"/><path d="m237.41 168.52a46.571 46.571 0 0 1 31.558-44.076 46.548 46.548 0 1 0 0 88.157 46.588 46.588 0 0 1 -31.558-44.081z" fill="#eac4a9"/><g fill="#a9b5bf"><path d="m278 369h12v33h-12z"/><path d="m247 369h12v33h-12z"/><path d="m217 369h12v33h-12z"/><path d="m186 369h12v33h-12z"/><path d="m155 369h12v33h-12z"/><path d="m309 369h12v33h-12z"/><path d="m339 369h12v33h-12z"/></g><path d="m127 54h12v15h-12z" fill="#fff"/><path d="m127 81h12v145h-12z" fill="#fff"/></svg>