<svg id="Layer_1" height="512" viewBox="0 0 512 512" width="512" xmlns="http://www.w3.org/2000/svg" data-name="Layer 1"><g id="_Path_" data-name=" Path "><path d="m131 166.53v178.94l152 116.18v-411.3z" fill="#74b4e8"/><path d="m28 166.53h103.33v178.94h-103.33z" fill="#b3d1e7"/></g><path d="m346.5 183.5v145h-62-1.04v-145h1.04z" fill="#f4d8a2"/><path d="m28 167h30v178h-30z" fill="#9fbed1"/><g fill="#d4e1f4"><path d="m382.831 236.731a27.252 27.252 0 0 1 0 38.538l8.485 8.485a39.25 39.25 0 0 0 0-55.508z"/><path d="m411.741 207.821a68.213 68.213 0 0 1 0 96.358l8.486 8.485a80.227 80.227 0 0 0 0-113.328z"/><path d="m444.482 175.081a114.436 114.436 0 0 1 0 161.838l8.485 8.486a126.437 126.437 0 0 0 0-178.81z"/></g><path d="m53 188h12v15h-12z" fill="#fff"/><path d="m53 215h12v73h-12z" fill="#fff"/></svg>