<svg id="Layer_1" height="512" viewBox="0 0 512 512" width="512" xmlns="http://www.w3.org/2000/svg" data-name="Layer 1"><g id="_Path_" data-name=" Path "><path d="m386.82 107v368l-130.82-90-130.82 90v-368z" fill="#eb7288"/><path d="m125.18 37h261.64v70h-261.64z" fill="#d4e1f4"/></g><path d="m336.46 228.93-40.23 39.22 9.5 55.38-49.73-26.15-49.73 26.15 9.5-55.38-40.23-39.22 55.6-8.07 24.86-50.39 24.86 50.39z" fill="#f3ce7d"/><path d="m125.18 107v368l30-20.639v-347.361z" fill="#d3627a"/><path d="m125.18 37h30v70h-30z" fill="#b6c7dd"/><g fill="#d4e1f4"><path d="m280 55h12v32h-12z"/><path d="m250 55h12v32h-12z"/><path d="m220 55h12v32h-12z"/><path d="m190 55h12v32h-12z"/><path d="m160 55h12v32h-12z"/><path d="m310 55h12v32h-12z"/><path d="m340 55h12v32h-12z"/></g><path d="m149 129h12v15h-12z" fill="#fff"/><path d="m149 156h12v95h-12z" fill="#fff"/></svg>