<svg id="Layer_1" height="512" viewBox="0 0 512 512" width="512" xmlns="http://www.w3.org/2000/svg" data-name="Layer 1"><g id="_Path_" data-name=" Path "><path d="m23 137h466v307h-466z" fill="#74b4e8"/></g><path d="m320.21 68.22 27.73 69.2h-189.18l27.73-69.2z" fill="#acb2ba"/><path d="m56.33 112.45h65.34v24.97h-65.34z" fill="#acb2ba"/><path d="m210.67 90.78h90.66v31.34h-90.66z" fill="#d4e1f4"/><path d="m85.33 171.45a16.665 16.665 0 1 1 -16.66 16.67 16.666 16.666 0 0 1 16.66-16.67z" fill="#eb7288"/><path d="m23 137h30v307h-30z" fill="#63a5d3"/><path d="m23.27 243.49h383.4v94.59h-383.4z" fill="#f3ce7d"/><path d="m406.67 200.33h82.06v180.9h-82.06z" fill="#acb2ba"/><path d="m253.35 179.94a110.84 110.84 0 1 1 -110.84 110.84 110.838 110.838 0 0 1 110.84-110.84z" fill="#9fe2e0"/><path d="m253.35 206.25a84.535 84.535 0 1 1 -84.54 84.53 84.53 84.53 0 0 1 84.54-84.53z" fill="#b9efec"/><circle cx="253.35" cy="290.78" fill="#9fe2e0" r="29.04"/><path d="m23.27 243.49h30v94.59h-30z" fill="#ddbd8a"/><path d="m407 200h30v181h-30z" fill="#8b95a0"/><path d="m198.81 290.78a84.534 84.534 0 0 1 69.539-83.18 84.535 84.535 0 1 0 0 166.362 84.546 84.546 0 0 1 -69.539-83.182z" fill="#d4fffc"/><g fill="#fff"><path d="m450 218h12v15h-12z"/><path d="m450 245h12v95h-12z"/></g></svg>