<svg id="Layer_1" height="512" viewBox="0 0 512 512" width="512" xmlns="http://www.w3.org/2000/svg" data-name="Layer 1"><g id="_Path_" data-name=" Path "><path d="m459.47 163.71v320.58h-406.94v-320.58z" fill="#acb2ba"/><path d="m459.47 27.71v136h-406.94v-136z" fill="#6d7486"/></g><path d="m357.05 340.19h54.87v108.18h-54.87z" fill="#eb7288"/><path d="m357.05 272.06h54.87v41.53h-54.87z" fill="#9fe2e0"/><path d="m357.05 203.93h54.87v41.53h-54.87z" fill="#9fe2e0"/><path d="m106.3 65.28h299.4v65.71h-299.4z" fill="#74b4e8"/><g fill="#9fe2e0"><path d="m270.4 406.83h54.87v41.54h-54.87z"/><path d="m270.4 340.19h54.87v41.53h-54.87z"/><path d="m270.4 272.06h54.87v41.53h-54.87z"/><path d="m270.4 203.93h54.87v41.53h-54.87z"/><path d="m185.24 406.83h54.87v41.54h-54.87z"/><path d="m185.24 340.19h54.87v41.53h-54.87z"/><path d="m185.24 272.06h54.87v41.53h-54.87z"/><path d="m185.24 203.93h54.87v41.53h-54.87z"/><path d="m100.08 406.83h54.87v41.54h-54.87z"/><path d="m100.08 340.19h54.87v41.53h-54.87z"/><path d="m100.08 272.06h54.87v41.53h-54.87z"/><path d="m100.08 203.93h54.87v41.53h-54.87z"/></g><path d="m52.53 163.71h30v320.58h-30z" fill="#8b95a0"/><path d="m52.53 27.71h30v136h-30z" fill="#4a5160"/><path d="m106.3 65.28h30v65.71h-30z" fill="#63a5d3"/><path d="m122 84h15v12h-15z" fill="#fff"/><path d="m149 84h95v12h-95z" fill="#fff"/></svg>