<svg id="Layer_1" height="512" viewBox="0 0 512 512" width="512" xmlns="http://www.w3.org/2000/svg" data-name="Layer 1"><path d="m466 154h12v118h-12z" fill="#d4e1f4"/><g id="_Path_" data-name=" Path "><path d="m93.69 304.29h305.5v59h-305.5z" fill="#d4e1f4"/><path d="m94 182h305v123h-305z" fill="#b3d1e7"/></g><path d="m94 305v-.71h-.31v59h30v-58.29z" fill="#bccee2"/><path d="m123.69 305v-.71h.31v-122.29h-30v122.29.71z" fill="#9fbfd3"/><path d="m246.44 70.96-226.07 83.1 226.07 87.98 225.58-87.79.49-.19z" fill="#eb7288"/><path d="m266.44 78.312-20-7.352-226.07 83.1 226.07 87.98 20-7.783-206.07-80.197z" fill="#d3627a"/><path d="m472.025 381.069a6 6 0 0 0 -5.651 3.985l-19.952 55.951 11.3 4.03 14.3-40.1 14.3 40.1 11.3-4.03-19.952-55.951a6 6 0 0 0 -5.645-3.985z" fill="#d4e1f4"/><g fill="#a7b7c6"><path d="m180 321h12v24h-12z"/><path d="m150 321h12v24h-12z"/><path d="m120 321h12v24h-12z"/><path d="m210 321h12v24h-12z"/><path d="m240 321h12v24h-12z"/><path d="m270 321h12v24h-12z"/><path d="m300 321h12v24h-12z"/><path d="m330 321h12v24h-12z"/><path d="m360 321h12v24h-12z"/></g><path d="m121 219h12v15h-12z" fill="#fff"/><path d="m121 244h12v39h-12z" fill="#fff"/><path d="m453.39 345.12h37.27v43h-37.27z" fill="#d2efb1"/><path d="m453.39 315.12h37.27v30h-37.27z" fill="#bad79d"/><path d="m453.39 272.12h37.27v43h-37.27z" fill="#d2efb1"/></svg>