<svg id="Layer_1" height="512" viewBox="0 0 512 512" width="512" xmlns="http://www.w3.org/2000/svg" data-name="Layer 1"><g id="_Path_" data-name=" Path "><path d="m400.2 14v484h-288.4v-484z" fill="#848d9b"/></g><path d="m149.8 67.39h212.4v353.22h-212.4z" fill="#9fe2e0"/><circle cx="256" cy="460.5" fill="#5d6875" r="18.5"/><path d="m150 67h30v354h-30z" fill="#8ececb"/><path d="m112 14h30v484h-30z" fill="#6c7787"/><path d="m237 34h38v12h-38z" fill="#5d6875"/><g fill="#72bab5"><path d="m188 148h51v12h-51z"/><path d="m188 185h135v12h-135z"/><path d="m188 221h135v12h-135z"/><path d="m188 258h135v12h-135z"/><path d="m188 295h135v12h-135z"/><path d="m188 331h135v12h-135z"/><path d="m188 368h135v12h-135z"/></g><path d="m167 94h12v15h-12z" fill="#fff"/><path d="m167 121h12v155h-12z" fill="#fff"/></svg>