<svg id="Layer_1" height="512" viewBox="0 0 512 512" width="512" xmlns="http://www.w3.org/2000/svg" data-name="Layer 1"><path d="m214 407h168v12h-168z" fill="#d4e1f4"/><path d="m345 348v-12h-191.8l-61.252-267.391a5.955 5.955 0 0 0 -5.848-4.609h-60.1v12h55.318l59.575 260h-19.07a5.762 5.762 0 0 0 -5.823 5.893v70.691c0 3.313 2.51 6.416 5.823 6.416h47.177v-12h-41v-59z" fill="#d4e1f4"/><g id="_Path_" data-name=" Path "><path d="m97.96 143 47.07 206h295.65l43.89-206z" fill="#b3c6dd"/></g><g fill="#d4e1f4"><path d="m343.58 188.82h30.2v119.69h-30.2z"/><path d="m275.65 188.82h30.19v119.69h-30.19z"/><path d="m207.71 188.82h30.19v119.69h-30.19z"/></g><path d="m97.96 143 47.07 206h40l-47.07-206z" fill="#99adc1"/><path d="m142.238 180.47h12v15.624h-12z" fill="#fff" transform="matrix(.975 -.223 .223 .975 -38.294 37.848)"/><path d="m158.806 211.477h12v98.277h-12z" fill="#fff" transform="matrix(.975 -.223 .223 .975 -54.017 43.365)"/><path d="m191.181 387.035a25.5 25.5 0 1 1 -25.506 25.551v-.045a25.5 25.5 0 0 1 25.506-25.506z" fill="#74b4e8"/><path d="m404.741 387.035a25.5 25.5 0 1 1 -25.506 25.551v-.045a25.507 25.507 0 0 1 25.506-25.506z" fill="#74b4e8"/></svg>