<svg id="Layer_1" height="512" viewBox="0 0 512 512" width="512" xmlns="http://www.w3.org/2000/svg" data-name="Layer 1"><g id="_Path_" data-name=" Path "><path d="m335.33 65h-164.59l-4.62 99.305.33.368 173.37-5.257.06-.118z" fill="#c0c5d9"/><path d="m339.82 353.57-173.68-5.525 4.6 98.955h164.61l4.53-93.305z" fill="#c0c5d9"/><g fill="#a5adc4"><path d="m335.35 446.89-1.95 40h-160.8l-1.86-40z"/><path d="m333.4 25.11 1.93 40h-164.59l1.86-40z"/></g></g><path d="m196.145 163.772 4.59-98.662h-29.995l.005-.11h-.005l-4.62 99.305.33.367z" fill="#a7adc1"/><path d="m200.735 446.89-4.551-97.889-30.044-.956 4.6 98.955h.005l-.005-.11z" fill="#a7adc1"/><path d="m200.74 447-.005-.11h-29.995l.005.11 1.855 39.89h30l-1.855-39.89z" fill="#8c95aa"/><path d="m200.735 65.11.005-.11h.005l1.855-39.89h-30l-1.855 39.89-.005.11z" fill="#8c95aa"/><path d="m166.14 347.99a128.26 128.26 0 1 1 89.86 36.75 127.821 127.821 0 0 1 -89.86-36.75z" fill="#eb7288"/><circle cx="256" cy="256.5" fill="#9fe2e0" r="97.67"/><path d="m188.33 256.5a97.7 97.7 0 0 1 82.67-96.524 97.67 97.67 0 1 0 0 193.048 97.7 97.7 0 0 1 -82.67-96.524z" fill="#8ececb"/><g fill="#79b7b3"><path d="m249 159h12v19h-12z"/><path d="m249 333h12v19h-12z"/><path d="m334 250h19v12h-19z"/><path d="m160 250h19v12h-19z"/><path d="m307.518 187.981h19v12.001h-19z" transform="matrix(.707 -.707 .707 .707 -44.308 281.002)"/><path d="m184.482 311.018h19v12.001h-19z" transform="matrix(.707 -.707 .707 .707 -167.355 230.039)"/><path d="m311.018 307.518h12.001v19h-12.001z" transform="matrix(.707 -.707 .707 .707 -131.313 317.01)"/><path d="m187.982 184.482h12.001v19h-12.001z" transform="matrix(.707 -.707 .707 .707 -80.35 193.966)"/></g><path d="m249 257a6 6 0 0 0 6 6h32v-12h-26v-45h-12z" fill="#f3ce7d"/><path d="m215 89h88v12h-88z" fill="#fff"/><path d="m191 89h12v12h-12z" fill="#fff"/></svg>