<svg id="Layer_1" height="512" viewBox="0 0 512 512" width="512" xmlns="http://www.w3.org/2000/svg" data-name="Layer 1"><g id="_Path_" data-name=" Path "><path d="m430.39 20.07a26.56 26.56 0 1 1 -26.56 26.56 26.56 26.56 0 0 1 26.56-26.56z" fill="#eb7288"/><path d="m185 444h142v55h-142z" fill="#7d8696"/><path d="m108.16 46.36a2.437 2.437 0 0 1 .01.27 27.455 27.455 0 1 1 -.01-.27z" fill="#eb7288"/></g><path d="m256 210.85 97.77 115.73-43.08 117.69h-106.06l-46.4-117.69z" fill="#dfe8f4"/><path d="m185 444h30v55h-30z" fill="#69727f"/><path d="m255.174 247.339.826-36.489-97.77 115.73 46.4 117.69h30l-46.4-117.69z" fill="#c5cfd8"/><path d="m287 50.448-2 4.931a85.6 85.6 0 0 1 50 77.421v34.2h12v-34.2c0-32.473-16.634-62.8-43.007-80.8h101.007v-12h-118z" fill="#d4e1f4"/><path d="m226.216 55.439-2.216-3.975v-11.464h-118v12h101.248a97.808 97.808 0 0 0 -42.248 80.8v35.2h12v-35.2a85.022 85.022 0 0 1 49.216-77.361z" fill="#d4e1f4"/><path d="m191.502 337.148h12.001v12.419h-12.001z" fill="#fff" transform="matrix(.93 -.367 .367 .93 -112.188 96.389)"/><path d="m210.652 356.143h12v71.565h-12z" fill="#fff" transform="matrix(.93 -.367 .367 .93 -128.653 106.779)"/><g fill="#74b4e8"><path d="m222 13h67v67h-67z"/><path d="m305.14 166.17h67.26v67.26h-67.26z"/><path d="m139 166h67v67h-67z"/></g><path d="m262 329.571v-111.571l-6-7-6 7v111.571a19.01 19.01 0 1 0 12 0z" fill="#7d8696"/></svg>