<svg id="Layer_1" height="512" viewBox="0 0 512 512" width="512" xmlns="http://www.w3.org/2000/svg" data-name="Layer 1"><g id="_Path_" data-name=" Path "><path d="m255.45 114.93c128.54 0 232.74 142.69 232.74 142.69s-104.2 142.7-232.74 142.7-232.73-142.7-232.73-142.7 104.2-142.69 232.73-142.69z" fill="#dedfe6"/></g><path d="m255.45 129.95a127.67 127.67 0 1 1 -127.67 127.67 127.67 127.67 0 0 1 127.67-127.67z" fill="#74b4e8"/><path d="m255.45 209.79a47.83 47.83 0 1 1 -47.83 47.83 47.833 47.833 0 0 1 47.83-47.83z" fill="#9fe2e0"/><path d="m52.72 257.62s96.193-131.694 217.731-142.02c-4.962-.421-9.96-.665-15-.665-128.53 0-232.73 142.69-232.73 142.69s104.2 142.7 232.73 142.7c5.041 0 10.039-.244 15-.665-121.538-10.337-217.731-142.04-217.731-142.04z" fill="#c0c3ce"/><path d="m157.78 257.62a127.684 127.684 0 0 1 112.67-126.788 127.67 127.67 0 1 0 0 253.576 127.684 127.684 0 0 1 -112.67-126.788z" fill="#66a7d3"/><path d="m237.62 257.62a47.841 47.841 0 0 1 32.832-45.42 47.83 47.83 0 1 0 0 90.834 47.841 47.841 0 0 1 -32.832-45.414z" fill="#8ececb"/><g fill="#fff"><path d="m222.434 157.266c-2.214.728-4.439 1.543-6.612 2.423l4.5 11.123c1.925-.78 3.9-1.5 5.856-2.146a93.2 93.2 0 0 1 10.4-2.764l-2.406-11.756a105.354 105.354 0 0 0 -11.738 3.12z"/><path d="m197.663 169.388a105.407 105.407 0 0 0 -47.83 88.612h12a93.362 93.362 0 0 1 42.4-78.572c1.727-1.13 3.513-2.311 5.307-3.324l-5.9-10.4c-2.016 1.137-4.029 2.41-5.977 3.684z"/></g></svg>