<svg id="Layer_1" height="512" viewBox="0 0 512 512" width="512" xmlns="http://www.w3.org/2000/svg" data-name="Layer 1"><path d="m245 367.271v-65.271h-12v59h-63v12h69.333a5.5 5.5 0 0 0 5.667-5.729z" fill="#8b95a0"/><g id="_Path_" data-name=" Path "><path d="m404 64h44v307h-44z" fill="#eb7288"/><path d="m336.61 101.13v232.24l-.06.21-75.94-21.41v-189.61z" fill="#d4e1f4"/><path d="m189 142.86v149.01l72 20.3v-189.61z" fill="#b3d1e7"/><path d="m77 143h112v149h-112z" fill="#eb7288"/></g><path d="m76.82 167.93v98.87h-.83-57.95v-98.87h57.95z" fill="#d4e1f4"/><path d="m91 292v-.06 156.06h81v-156.06.06z" fill="#acb2ba"/><path d="m447.78 174.03h46.18v86.67h-46.18z" fill="#b3d1e7"/><path d="m404.28 82.05v270.63l-67.73-19.1.06-.21v-232.24z" fill="#b3d1e7"/><path d="m77 143h30v149h-30z" fill="#d3627a"/><path d="m91 292h30v156h-30z" fill="#8b95a0"/><g fill="#d4e1f4"><path d="m117 166h32v12h-32z"/><path d="m117 196h32v12h-32z"/><path d="m117 226h32v12h-32z"/><path d="m117 256h32v12h-32z"/></g><path d="m113 308h12v15h-12z" fill="#fff"/><path d="m113 335h12v72h-12z" fill="#fff"/></svg>