<svg id="Layer_1" height="512" viewBox="0 0 512 512" width="512" xmlns="http://www.w3.org/2000/svg" data-name="Layer 1"><g id="_Path_" data-name=" Path "><path d="m37 151v194h438v-194z" fill="#6d7486"/></g><path d="m114 239h284v53h-284z" fill="#b0b5ca"/><path d="m418.79 105.69v45.26h-60v-45.26h.54z" fill="#b0b5ca"/><path d="m153.21 105.69v45.26h-60v-45.26h59.79z" fill="#b0b5ca"/><circle cx="200.37" cy="196" fill="#d8ff33" r="9.58"/><circle cx="165" cy="196" fill="#55d8d8" r="9.58"/><circle cx="129.63" cy="196" fill="#eb7288" r="9.58"/><path d="m153.21 55.69h205.58v95.26h-205.58z" fill="#a0eaea"/><path d="m166 239v182.41l40.095 34.615 139.905-.025v-217z" fill="#a0eaea"/><path d="m37 151h30v194h-30z" fill="#4a5160"/><path d="m153.21 55.69h30v95.26h-30z" fill="#8ececb"/><path d="m166 239v182.41l30 25.9v-208.31z" fill="#8ececb"/><g fill="#74afab"><path d="m197 276h43v12h-43z"/><path d="m197 304h118v12h-118z"/><path d="m197 332h118v12h-118z"/><path d="m197 359h118v12h-118z"/><path d="m197 387h118v12h-118z"/></g><path d="m60 174h12v15h-12z" fill="#fff"/><path d="m60 201h12v75h-12z" fill="#fff"/><path d="m206.32 421.41v34.77l-.14-.01-39.73-34.62v-.14z" fill="#74afab"/></svg>