<svg id="Layer_1" height="512" viewBox="0 0 512 512" width="512" xmlns="http://www.w3.org/2000/svg" data-name="Layer 1"><path d="m31 95v321.78.22h450v-.4-321.6z" fill="#74b4e8"/><path d="m481.24 416.6v.82h-224.73l-27.68-29.3 116.66-185.13z" fill="#c79a83"/><circle cx="214.65" cy="208.38" fill="#f3ce7d" r="43.48"/><path d="m62 95h-31v321.78.22h31v-.22z" fill="#63a5d3"/><path d="m345.49 202.99-116.66 185.13 19.141 20.261 113.085-180.898z" fill="#b2836f"/><path d="m143.46 297.4-112.46 119.38v.22h225.51z" fill="#e1b7a3"/><path d="m158.986 313.826-15.526-16.426-112.46 119.38v.22h31v-.22z" fill="#c9a08f"/><g fill="#fff"><path d="m56 127h12v15h-12z"/><path d="m56 154h12v125h-12z"/></g></svg>