<svg id="Layer_1" height="512" viewBox="0 0 512 512" width="512" xmlns="http://www.w3.org/2000/svg" data-name="Layer 1"><g id="_Path_" fill="#f3ce7d" data-name=" Path "><path d="m68 319h376v34h-376z"/><path d="m68 62h376v34h-376z"/></g><g fill="#e1b7a3"><path d="m278.21 62.4v.05h-44.42v-.05-42.47h44.42z"/><path d="m344.79 353h-37.34l59.88 140h37.34z"/><path d="m167.21 353-59.88 140h37.34l59.88-140z"/></g><path d="m347.75 447.37-.65.28h-182.2l-.65-.28 11.1-25.88.55.24h160.2l.55-.24z" fill="#c79a83"/><path d="m430.7 95.66v223.79h-349.4v-224.1h349.4z" fill="#d4e1f4"/><path d="m212.91 186.73h24v71.34h-24z" fill="#eb7288"/><path d="m166.91 156.73h24v101.34h-24z" fill="#eb7288"/><path d="m120.91 206.73h24v51.34h-24z" fill="#eb7288"/><path d="m68 319h30v34h-30z" fill="#ddbd8a"/><path d="m68 62h30v34h-30z" fill="#ddbd8a"/><path d="m111.3 95.35h-30v.31 223.79h30v-223.79z" fill="#bccee2"/><path d="m270 252h122v12h-122z" fill="#9db2c4"/><path d="m270 212h122v12h-122z" fill="#9db2c4"/><path d="m270 172h50v12h-50z" fill="#9db2c4"/><path d="m103 118h15v12h-15z" fill="#fff"/><path d="m130 118h95v12h-95z" fill="#fff"/></svg>