<svg id="Layer_1" height="512" viewBox="0 0 512 512" width="512" xmlns="http://www.w3.org/2000/svg" data-name="Layer 1"><g id="_Path_" data-name=" Path "><path d="m92 217h328v62h-328z" fill="#d4e1f4"/><path d="m419.66 33.57v183.67h-327.32v-183.67h45.24l26.54 44.91 26.55-44.91z" fill="#f5db9f"/><path d="m292.75 403.29v75.14h-73.5v-75.14z" fill="#8e93a9"/></g><path d="m219.25 279.45h73.5v123.84h-73.5z" fill="#b3d1e7"/><path d="m92.34 217.24v-.24h-.34v62h30v-61.76z" fill="#b6c7db"/><path d="m122 217.24v-.24h.34v-183.43h-30v183.43.24z" fill="#e0c690"/><g fill="#97acbf"><path d="m235 236h12v21h-12z"/><path d="m205 236h12v21h-12z"/><path d="m175 236h12v21h-12z"/><path d="m145 236h12v21h-12z"/><path d="m115 236h12v21h-12z"/><path d="m265 236h12v21h-12z"/><path d="m295 236h12v21h-12z"/><path d="m325 236h12v21h-12z"/><path d="m355 236h12v21h-12z"/><path d="m385 236h12v21h-12z"/></g><path d="m117 62h12v15h-12z" fill="#fff"/><path d="m117 89h12v95h-12z" fill="#fff"/><path d="m256 428.97a12.935 12.935 0 1 1 -12.93 12.93 12.931 12.931 0 0 1 12.93-12.93z" fill="#72788e"/></svg>