<svg id="Layer_1" height="512" viewBox="0 0 512 512" width="512" xmlns="http://www.w3.org/2000/svg" data-name="Layer 1"><g id="_Path_" data-name=" Path "><path d="m440.881 156.43-.24.175c-12.5-11.65-30.3-18.6-49.571-18.6h-.05c-37.15 0-67.3 26-67.47 58h-.55l-.425 123.757 164.525-38.588z" fill="#8e93a9"/><path d="m436.66 144.95 4.26 11.48-.26.1c-12.5-11.65-30.32-18.68-49.59-18.68h-.05c-37.15 0-67.3 25.82-67.47 57.77h-.24l.15-32.79a58.032 58.032 0 0 1 58.03-57.77h.05a58.029 58.029 0 0 1 55.12 39.89z" fill="#b3d1e7"/><path d="m323.29 199.9-.36 76.91h-133.86l-.36-76.91z" fill="#b3d1e7"/><path d="m189.28 320.29-.01-.58-.2-42.9h133.86l-.2 42.9-.01.58c0 1.55.05 3.08.13 4.61h-133.18l-.52-.03c.08-1.52.13-3.04.13-4.58z" fill="#99bace"/><path d="m189 196h-.55c-.17-32-30.32-58-67.47-58h-.05c-19.27 0-37.09 6.955-49.59 18.6l-.26-.138-46.26 124.7 164.605 38.55z" fill="#8e93a9"/><path d="m188.54 162.83.15 32.79h-.24c-.17-31.95-30.32-57.77-67.47-57.77h-.05c-19.27 0-37.09 7.03-49.59 18.68l-.26-.1 4.26-11.48a58.029 58.029 0 0 1 55.12-39.89h.05a58.032 58.032 0 0 1 58.03 57.77z" fill="#b3d1e7"/></g><path d="m220.48 227.58h71.04v21.86h-71.04z" fill="#99bace"/><path d="m409.56 233.26a86.84 86.84 0 1 1 -86.84 86.84 86.832 86.832 0 0 1 86.84-86.84z" fill="#a0eaea"/><path d="m409.56 258.62a61.48 61.48 0 1 1 -61.48 61.48 61.486 61.486 0 0 1 61.48-61.48z" fill="#bcedea"/><circle cx="409.56" cy="320.1" fill="#9fe2e0" r="21.47"/><path d="m101.34 156.6a70.376 70.376 0 0 1 34.572-17.152 77.721 77.721 0 0 0 -14.932-1.448h-.05c-19.27 0-37.09 6.955-49.59 18.6l-.26-.138-46.26 124.7 30.109 7.051 46.151-131.746z" fill="#6b7182"/><path d="m145.505 107.028a58.071 58.071 0 0 0 -15-1.968h-.05a58.029 58.029 0 0 0 -55.12 39.89l-4.26 11.48.26.1a70.916 70.916 0 0 1 36.34-17.539 58.04 58.04 0 0 1 37.83-31.963z" fill="#99bace"/><path d="m102.44 233.26a86.84 86.84 0 1 1 -86.83 86.84 86.841 86.841 0 0 1 86.83-86.84z" fill="#a0eaea"/><path d="m102.44 258.62a61.48 61.48 0 1 1 -61.48 61.48 61.479 61.479 0 0 1 61.48-61.48z" fill="#bcedea"/><circle cx="102.44" cy="320.1" fill="#9fe2e0" r="21.47"/><path d="m70.96 320.1a61.505 61.505 0 0 1 46.482-59.628 61.48 61.48 0 1 0 0 119.257 61.5 61.5 0 0 1 -46.482-59.629z" fill="#d2f9f5"/><g fill="#769eb2"><path d="m296 290h12v20h-12z"/><path d="m265 290h12v20h-12z"/><path d="m235 290h12v20h-12z"/><path d="m204 290h12v20h-12z"/></g></svg>