<svg id="Layer_1" height="512" viewBox="0 0 512 512" width="512" xmlns="http://www.w3.org/2000/svg" data-name="Layer 1"><path d="m402 80.75a39.5 39.5 0 0 1 -79 0v-10.625a56.5 56.5 0 0 0 -113 0v93.875h12v-93.875a44.5 44.5 0 0 1 89 0v10.625a51.5 51.5 0 0 0 103 0v-26.75h-12z" fill="#b0b5ca"/><path d="m104 163v217.75a112.179 112.179 0 0 0 112.37 112.25h.01c62.13 0 112.62-50.12 112.62-112.25v-217.75z" fill="#7d8595"/><path d="m134 380.75v-217.75h-30v217.75a112.179 112.179 0 0 0 112.37 112.25h.01a114.149 114.149 0 0 0 15-.992 112.154 112.154 0 0 1 -97.38-111.258z" fill="#626a77"/><path d="m328.87 163.25v168.92l-42-50v-118.34-.58z" fill="#82a5ce"/><path d="m146.37 163.83v118.34l-42 50h-.5v-168.92h42.5z" fill="#82a5ce"/><path d="m201.71 191.78h29.33v73.44h-29.33z" fill="#74b4e8"/><path d="m103.87 163.25v168.92h.5l29.5-35.119v-133.801z" fill="#7495b5"/><g fill="#fff"><path d="m129.875 381h-12a98.427 98.427 0 0 0 66.389 93l3.922-11.279a86.391 86.391 0 0 1 -58.311-81.721z"/><path d="m118 355h12v14h-12z"/></g></svg>