<svg id="Layer_1" height="512" viewBox="0 0 512 512" width="512" xmlns="http://www.w3.org/2000/svg" data-name="Layer 1"><path d="m378.46 379.1v70.53h-244.92v-70.53a122.46 122.46 0 1 1 244.92 0z" fill="#9fe2e0"/><path d="m378.46 62.37v70.53a122.46 122.46 0 1 1 -244.92 0v-70.53z" fill="#9fe2e0"/><path d="m355.32 379.1v47.39h-198.64v-47.39a99.32 99.32 0 1 1 198.64 0z" fill="#e87187"/><path d="m355.32 114.58v18.32a99.32 99.32 0 0 1 -198.64 0v-18.32z" fill="#e87187"/><path d="m156.68 426.49h30v-47.39a99.476 99.476 0 0 1 84.32-98.188 99.364 99.364 0 0 0 -114.32 98.188z" fill="#d3627a"/><path d="m256 232.22a99.6 99.6 0 0 0 15-1.132 99.476 99.476 0 0 1 -84.32-98.188v-18.32h-30v18.32a99.433 99.433 0 0 0 99.32 99.32z" fill="#d3627a"/><path d="m171 379.1v16.9h12v-16.9a72.762 72.762 0 0 1 28.3-57.957l-7.275-9.481a84.757 84.757 0 0 0 -33.025 67.438z" fill="#fff"/><path d="m218.125 302.652 5.344 10.744a73.032 73.032 0 0 1 10.725-4.31l-3.576-11.455a85.1 85.1 0 0 0 -12.493 5.021z" fill="#fff"/><path d="m407 62h12v388h-12z" fill="#d4e1f4"/><path d="m93 62h12v388h-12z" fill="#d4e1f4"/><g fill="#b3c6dd"><path d="m412.51 235.74a20.26 20.26 0 1 1 -20.26 20.26 20.257 20.257 0 0 1 20.26-20.26z"/><path d="m99.49 235.74a20.26 20.26 0 1 1 -20.25 20.26 20.259 20.259 0 0 1 20.25-20.26z"/><path d="m77 449h358v40h-358z"/></g><path d="m77 449h30v40h-30z" fill="#99adc1"/><path d="m77 23h358v40h-358z" fill="#b3c6dd"/><path d="m77 23h30v40h-30z" fill="#99adc1"/></svg>