<svg id="Layer_1" height="512" viewBox="0 0 512 512" width="512" xmlns="http://www.w3.org/2000/svg" data-name="Layer 1"><path d="m400.18 188.21v.73l-12.56 299.2h-264.29l-11.51-299.2v-.73z" fill="#d4e1f4"/><path d="m190.05 248.93h131.9v170.63h-131.9z" fill="#eb7288"/><path d="m374.29 24h-236.58l-23.03 115h282.64z" fill="#d4e1f4"/><path d="m330.69 23.86-10.47 72.46h-128.44l-10.47-72.46z" fill="#eb7288"/><path d="m92 139h328v50h-328z" fill="#eb7288"/><path d="m190.05 248.93h30v170.63h-30z" fill="#d3627a"/><path d="m122 189h-10.178l11.508 299.14h30l-11.508-299.14z" fill="#bac8d8"/><path d="m144.68 139 23.03-115h-30l-23.03 115h7.32z" fill="#bac8d8"/><path d="m122 139h-7.32-22.68v50h19.822 10.178z" fill="#d3627a"/><g fill="#b2506a"><path d="m231 286h50v12h-50z"/><path d="m231 314h50v12h-50z"/><path d="m231 342h50v12h-50z"/><path d="m231 370h50v12h-50z"/></g><path d="m136.427 222.269h12v14.777h-12z" fill="#fff" transform="matrix(.999 -.033 .033 .999 -7.563 4.866)"/><path d="m139.648 248.815h12v155.177h-12z" fill="#fff" transform="matrix(.999 -.033 .033 .999 -10.784 5.029)"/></svg>