<svg id="Layer_1" height="512" viewBox="0 0 512 512" width="512" xmlns="http://www.w3.org/2000/svg" data-name="Layer 1"><g id="_Path_" data-name=" Path "><path d="m468 285.62h-36.37a175.086 175.086 0 0 0 -51.44-124.19l.01-.01 25.67-25.67.04-.03a211.368 211.368 0 0 1 62.09 149.9z" fill="#b3c6dd"/><path d="m467.95 285.62h.05a211.3 211.3 0 0 1 -62.1 149.9l-.03-.03-25.67-25.67-.01-.01a175.1 175.1 0 0 0 51.44-124.19z" fill="#9fb2c4"/><path d="m270.03 74.08a211.275 211.275 0 0 1 135.88 61.64l-.04.03-25.67 25.67-.01.01a175.086 175.086 0 0 0 -124.19-51.44v-36.37q7.08 0 14.03.46z" fill="#9fb2c4"/><path d="m405.87 435.49.03.03a211.3 211.3 0 0 1 -149.9 62.1v-36.37a175.086 175.086 0 0 0 124.19-51.44l.01.01z" fill="#b3c6dd"/><path d="m380.19 161.43a175.634 175.634 0 1 0 51.44 124.19 175.086 175.086 0 0 0 -51.44-124.19z" fill="#9fe2e0"/><path d="m270.03 38.8v35.28q-6.945-.465-14.03-.46t-14.03.46v-35.8h28.06z" fill="#c0c5d9"/><path d="m256 497.57v.05a211.3 211.3 0 0 1 -149.9-62.1l.03-.03 25.67-25.67.01-.01a175.086 175.086 0 0 0 124.19 51.44z" fill="#9fb2c4"/><path d="m241.97 74.08q6.945-.465 14.03-.46v36.37a175.086 175.086 0 0 0 -124.19 51.44l-.01-.01-25.67-25.67-.04-.03a211.275 211.275 0 0 1 135.88-61.64z" fill="#b3c6dd"/><path d="m131.81 409.81-.01.01-25.67 25.67-.03.03a211.3 211.3 0 0 1 -62.1-149.9h36.37a175.1 175.1 0 0 0 51.44 124.19z" fill="#b3c6dd"/><path d="m131.8 161.42.01.01a175.086 175.086 0 0 0 -51.44 124.19h-36.37a211.368 211.368 0 0 1 62.09-149.9l.04.03z" fill="#9fb2c4"/></g><path d="m335.12 206.5-50.92 107.32-.47.22-.04-.07-56.04-56.05-.07-.04.22-.47z" fill="#eb7288"/><path d="m283.73 314.04v.01l-106.85 50.69 50.69-106.86h.01l.07.04 56.04 56.05z" fill="#74b4e8"/><path d="m120.37 285.62a175.632 175.632 0 0 1 155.63-174.49 177.517 177.517 0 0 0 -20-1.14 175.63 175.63 0 1 0 0 351.26 177.517 177.517 0 0 0 20-1.14 175.632 175.632 0 0 1 -155.63-174.49z" fill="#8ececb"/><path d="m226.055 146.15a143.091 143.091 0 0 0 -112.672 139.85h12a130.877 130.877 0 0 1 103.179-128.02z" fill="#fff"/><path d="m256 155v-12a144.774 144.774 0 0 0 -14.639.743l1.219 11.938a132.654 132.654 0 0 1 13.42-.681z" fill="#fff"/><path d="m220 15h72v24h-72z" fill="#7d8696"/></svg>