<svg id="Layer_1" height="512" viewBox="0 0 512 512" width="512" xmlns="http://www.w3.org/2000/svg" data-name="Layer 1"><path d="m408.77 35.05 78.23 132.71h-231v-132.71z" fill="#c99e93"/><path d="m256 35.05v132.71h-231l78.23-132.71z" fill="#eabfad"/><path d="m103.23 35.05-78.23 132.71h30l78.23-132.71z" fill="#ddaf9f"/><g id="_Path_" data-name=" Path "><path d="m25 167h462v311h-462z" fill="#ba8e80"/></g><path d="m310.55 365.82v112.13h-109.1v-92.13z" fill="#eb7288"/><path d="m25 167h30v311h-30z" fill="#9b7368"/><path d="m201.45 477.95h30v-97.63l-30 5.5z" fill="#d3627a"/><g fill="#7c574e"><path d="m184 281h12v24h-12z"/><path d="m151 281h12v24h-12z"/><path d="m118 281h12v24h-12z"/><path d="m85 281h12v24h-12z"/><path d="m52 281h12v24h-12z"/><path d="m217 281h12v24h-12z"/><path d="m250 281h12v24h-12z"/><path d="m283 281h12v24h-12z"/><path d="m316 281h12v24h-12z"/><path d="m349 281h12v24h-12z"/><path d="m382 281h12v24h-12z"/><path d="m415 281h12v24h-12z"/><path d="m448 281h12v24h-12z"/></g><path d="m53 338h12v15h-12z" fill="#fff"/><path d="m53 365h12v75h-12z" fill="#fff"/></svg>