<svg id="Layer_1" height="512" viewBox="0 0 512 512" width="512" xmlns="http://www.w3.org/2000/svg" data-name="Layer 1"><g id="_Path_" data-name=" Path "><path d="m430.81 102.72-132.7 157.27v142.86l-84.23 70.65v-213.51l-132.69-157.27z" fill="#d4e1f4"/><path d="m81.19 38.5h349.62v64.22h-349.62z" fill="#b3d1e7"/></g><path d="m111.19 102.72h-30l132.69 157.27v213.51l30-25.163v-188.347z" fill="#b2c3d8"/><path d="m81.19 38.5h30v64.22h-30z" fill="#9dbbce"/><g fill="#86a3b2"><path d="m173 55h12v21h-12z"/><path d="m142 55h12v21h-12z"/><path d="m111 55h12v21h-12z"/><path d="m204 55h12v21h-12z"/><path d="m235 55h12v21h-12z"/><path d="m265 55h12v21h-12z"/><path d="m296 55h12v21h-12z"/><path d="m327 55h12v21h-12z"/><path d="m358 55h12v21h-12z"/><path d="m389 55h12v21h-12z"/></g><path d="m238 266h12v15h-12z" fill="#fff"/><path d="m238 292h12v96h-12z" fill="#fff"/></svg>