<svg id="Layer_1" height="512" viewBox="0 0 512 512" width="512" xmlns="http://www.w3.org/2000/svg" data-name="Layer 1"><g fill="#d4e1f4"><path d="m27 335h78v12h-78z"/><path d="m27 292h78v12h-78z"/><path d="m27 250h78v12h-78z"/><path d="m27 208h78v12h-78z"/><path d="m27 165h78v12h-78z"/><path d="m335 407h12v78h-12z"/><path d="m292 407h12v78h-12z"/><path d="m250 407h12v78h-12z"/><path d="m208 407h12v78h-12z"/><path d="m165 407h12v78h-12z"/><path d="m407 165h78v12h-78z"/><path d="m407 208h78v12h-78z"/><path d="m407 250h78v12h-78z"/><path d="m407 292h78v12h-78z"/><path d="m407 335h78v12h-78z"/><path d="m165 27h12v78h-12z"/><path d="m208 27h12v78h-12z"/><path d="m250 27h12v78h-12z"/><path d="m292 27h12v78h-12z"/><path d="m335 27h12v78h-12z"/></g><g id="_Path_" data-name=" Path "><path d="m134 134h244v244h-244z" fill="#8e93a9"/></g><path d="m318.04 193.96v124.08h-124.08v-124.08z" fill="#9fe2e0"/><path d="m236.71 236.71h38.58v38.58h-38.58z" fill="#eb7288"/><path d="m102.62 160.02h31.78v22.18h-31.78z" fill="#adc7de"/><path d="m102.62 202.46h31.78v22.19h-31.78z" fill="#adc7de"/><path d="m102.62 244.91h31.78v22.18h-31.78z" fill="#adc7de"/><path d="m102.62 287.35h31.78v22.19h-31.78z" fill="#adc7de"/><path d="m160.02 377.6h22.18v31.78h-22.18z" fill="#adc7de"/><path d="m102.62 329.8h31.78v22.18h-31.78z" fill="#adc7de"/><path d="m202.46 377.6h22.19v31.78h-22.19z" fill="#adc7de"/><path d="m244.91 377.6h22.18v31.78h-22.18z" fill="#adc7de"/><path d="m287.35 377.6h22.19v31.78h-22.19z" fill="#adc7de"/><path d="m329.8 377.6h22.18v31.78h-22.18z" fill="#adc7de"/><path d="m377.6 329.8h31.78v22.18h-31.78z" fill="#adc7de"/><path d="m377.6 287.35h31.78v22.19h-31.78z" fill="#adc7de"/><path d="m377.6 244.91h31.78v22.18h-31.78z" fill="#adc7de"/><path d="m377.6 202.46h31.78v22.19h-31.78z" fill="#adc7de"/><path d="m377.6 160.02h31.78v22.18h-31.78z" fill="#adc7de"/><path d="m329.8 102.62h22.18v31.78h-22.18z" fill="#adc7de"/><path d="m287.35 102.62h22.19v31.78h-22.19z" fill="#adc7de"/><path d="m244.91 102.62h22.18v31.78h-22.18z" fill="#adc7de"/><path d="m202.46 102.62h22.19v31.78h-22.19z" fill="#adc7de"/><path d="m160.02 102.62h22.18v31.78h-22.18z" fill="#adc7de"/><path d="m134 134h30v244h-30z" fill="#7a7f93"/><path d="m157 152h12v15h-12z" fill="#fff"/><path d="m157 178h12v96h-12z" fill="#fff"/></svg>