<svg id="Layer_1" height="512" viewBox="0 0 512 512" width="512" xmlns="http://www.w3.org/2000/svg" data-name="Layer 1"><g id="_Path_" data-name=" Path "><path d="m134.36 135h-107.36v322.51l69.04-69.51h301.96v-100.37z" fill="#d4e1f4"/></g><path d="m114 54v254h301.96l69.04 68.76v-322.76z" fill="#74b4e8"/><path d="m415.96 308 69.04 68.76v-29.878l-39.04-38.882z" fill="#63a5d3"/><path d="m114 54h30v254h-30z" fill="#63a5d3"/><path d="m27 135v322.51l30-30.204v-292.306z" fill="#bccee2"/><g fill="#4d90b5"><path d="m233 101h189v12h-189z"/><path d="m177 138h245v12h-245z"/><path d="m177 176h245v12h-245z"/><path d="m177 213h245v12h-245z"/><path d="m177 250h180v12h-180z"/></g><path d="m50 157h12v15h-12z" fill="#fff"/><path d="m50 184h12v155h-12z" fill="#fff"/></svg>