<svg id="Layer_1" height="512" viewBox="0 0 512 512" width="512" xmlns="http://www.w3.org/2000/svg" data-name="Layer 1"><g fill="#b0b5ca"><path d="m256.63 300.194c-11.211 0-21.829 6.234-28.4 16.673l10.154 6.395c4.429-7.033 11.08-11.068 18.248-11.068 6.612 0 12.71 3.467 17.169 9.762l9.792-6.935c-6.676-9.421-16.503-14.827-26.963-14.827z"/><path d="m91.793 86.771 41.6 17.364 4.616-11.06-48-19.992a6 6 0 0 0 -8.121 4.057l-65.9 257.5a5.868 5.868 0 0 0 1.074 5.1 5.939 5.939 0 0 0 4.738 2.26h24.2v-12h-16.471z"/><path d="m430.113 77.142a6 6 0 0 0 -8.121-4.051l-48 20 4.616 11.076 41.6-17.4 62.263 243.233h-16.471v12h24.2a5.908 5.908 0 0 0 5.813-7.391z"/></g><path d="m43.96 336.13a97.24 97.24 0 1 1 97.24 97.24 97.233 97.233 0 0 1 -97.24-97.24z" fill="#d4e1f4"/><circle cx="141.2" cy="336.13" fill="#9fe2e0" r="69.13"/><path d="m102.07 336.13a69.141 69.141 0 0 1 54.13-67.479 69.13 69.13 0 1 0 0 134.958 69.141 69.141 0 0 1 -54.13-67.479z" fill="#8ececb"/><path d="m88.071 336h12a40.941 40.941 0 0 1 23.248-36.986l-5.219-10.835a53.692 53.692 0 0 0 -30.029 47.821z" fill="#fff"/><path d="m132.274 295.948a40.353 40.353 0 0 1 8.726-.948v-12a51.9 51.9 0 0 0 -11.336 1.224z" fill="#fff"/><path d="m468.04 336.13a97.24 97.24 0 1 1 -97.24-97.24 97.239 97.239 0 0 1 97.24 97.24z" fill="#d4e1f4"/><circle cx="371.2" cy="336.13" fill="#9fe2e0" r="69.13"/><path d="m332.07 336.13a69.141 69.141 0 0 1 54.13-67.479 69.13 69.13 0 1 0 0 134.958 69.141 69.141 0 0 1 -54.13-67.479z" fill="#8ececb"/></svg>