<svg id="Layer_1" height="512" viewBox="0 0 512 512" width="512" xmlns="http://www.w3.org/2000/svg" data-name="Layer 1"><g fill="#d4e1f4"><path d="m429.98 355.82v10.01h-28v-10.01-209.64-.01h28v.01z"/><path d="m146.27 85.58h219.46v28h-219.46z"/><path d="m86.09 146.17h28v219.66h-28z"/><path d="m146.27 407.57h219.46v28h-219.46z"/></g><path d="m361 361h105v108h-105z" fill="#eb7288"/><path d="m361 43h105v108h-105z" fill="#eb7288"/><path d="m46 361h105v108h-105z" fill="#eb7288"/><path d="m46 43h105v108h-105z" fill="#eb7288"/><path d="m46 361h30v108h-30z" fill="#d3627a"/><path d="m46 43h30v108h-30z" fill="#d3627a"/><path d="m61 62h12v11h-12z" fill="#fff"/><path d="m61 82h12v38h-12z" fill="#fff"/></svg>