<svg id="Layer_1" height="512" viewBox="0 0 512 512" width="512" xmlns="http://www.w3.org/2000/svg" data-name="Layer 1"><g id="_Path_" data-name=" Path "><path d="m494.76 118v276h-477.52v-276z" fill="#bad79d"/></g><path d="m447.67 203.69v105.62l-40.47 38.5h-302.4l-40.47-38.5v-105.62l40.47-39.5h302.97z" fill="#e9fc7a"/><circle cx="256" cy="256" fill="#bad79d" r="69"/><path d="m17.24 118h30v276h-30z" fill="#9cb77e"/><path d="m217 256a69.009 69.009 0 0 1 54-67.346 69 69 0 1 0 0 134.692 69.009 69.009 0 0 1 -54-67.346z" fill="#9cb77e"/><path d="m94.33 203.69 40.47-39.5h-30l-40.47 39.5v105.62l40.47 38.5h30l-40.47-38.5z" fill="#d3dd6c"/><path d="m256 225.053a12.981 12.981 0 0 1 12.8 12.947h12a24.839 24.839 0 0 0 -18.8-24.352v-11.648h-12v11.648a24.8 24.8 0 0 0 6 48.871 12.794 12.794 0 0 1 12.8 12.775c0 6.61-5.034 11.706-11.47 12.706h-2.668c-6.436-1-11.47-6-11.47-13h-12a24.882 24.882 0 0 0 18.808 24.389v10.611h12v-10.611a24.8 24.8 0 0 0 -6-48.87 12.733 12.733 0 1 1 0-25.466z" fill="#7e965f"/><g fill="#fff"><path d="m38 139h12v15h-12z"/><path d="m38 165h12v96h-12z"/></g></svg>