<svg id="Layer_1" height="512" viewBox="0 0 512 512" width="512" xmlns="http://www.w3.org/2000/svg" data-name="Layer 1"><g id="_Path_" data-name=" Path "><path d="m357.36 354.84v133.16h-202.72v-133.16zm-61.7 89.69v-45.64h-79.32v45.64z" fill="#8e93a9"/><path d="m155 139h202v216h-202z" fill="#eb7288"/></g><path d="m184 24h144v115h-144z" fill="#d4e1f4"/><path d="m275.56 24.08h26.08v57.51h-26.08z" fill="#adc7de"/><path d="m155 355v-.16h-.36v133.16h30v-133z" fill="#7d8291"/><path d="m184.64 355v-.16h.36v-215.84h-30v215.84.16z" fill="#d3627a"/><path d="m184 24h30v115h-30z" fill="#bfcfe2"/><path d="m210 24h26v58h-26z" fill="#adc7de"/><g fill="#b5506a"><path d="m205 170h12v24h-12z"/><path d="m175 170h12v24h-12z"/><path d="m235 170h12v24h-12z"/><path d="m265 170h12v24h-12z"/><path d="m295 170h12v24h-12z"/><path d="m325 170h12v24h-12z"/></g><path d="m175 212h12v15h-12z" fill="#fff"/><path d="m175 238h12v96h-12z" fill="#fff"/></svg>