<svg id="Layer_1" height="512" viewBox="0 0 512 512" width="512" xmlns="http://www.w3.org/2000/svg" data-name="Layer 1"><g id="_Path_" data-name=" Path "><path d="m420.89 260.38-196.57-196.56-16.32 31.52 9.11 51.52 158.65 158.65 65.95 20.82z" fill="#d4e1f4"/><path d="m82.31 14 42.1 81h83.59l42.1-81z" fill="#8e93a9"/><path d="m208 95h-84l-53.812 306.47 95.961 96.53 95.946-96.53z" fill="#eb7288"/></g><path d="m216.62 144.09-122.48 122.48-19.25 108.86 155.19-155.19z" fill="#74b4e8"/><path d="m154.41 95-42.1-81h-30l42.1 81h29.59z" fill="#7d8291"/><path d="m100.188 401.47 10.934-62.272-36.232 36.232 19.25-108.86 36.067-36.067 23.793-135.503h-29.59-.41l-53.812 306.47 95.961 96.53 14.998-15.09z" fill="#d3627a"/><path d="m94.14 266.57-19.25 108.86 36.232-36.232 19.085-108.695z" fill="#66a7d3"/><g fill="#5496ba"><path d="m128.48 260.166h11.999v27.181h-11.999z" transform="matrix(.707 -.707 .707 .707 -154.187 175.273)"/><path d="m105.218 283.427h12.001v27.181h-12.001z" transform="matrix(.707 -.707 .707 .707 -177.45 165.642)"/><path d="m151.742 236.904h11.999v27.182h-11.999z" transform="matrix(.707 -.707 .707 .707 -130.925 184.905)"/><path d="m175.003 213.642h11.999v27.182h-11.999z" transform="matrix(.707 -.707 .707 .707 -107.663 194.54)"/><path d="m198.264 190.382h12.001v27.181h-12.001z" transform="matrix(.707 -.707 .707 .707 -84.402 204.182)"/></g><path d="m143.569 113.39h9.182v12h-9.182z" fill="#fff" transform="matrix(.174 -.985 .985 .174 4.791 244.493)"/><path d="m114.318 151.087h54.617v12h-54.617z" fill="#fff" transform="matrix(.169 -.986 .986 .169 -37.185 270.049)"/></svg>