<svg id="Layer_1" height="512" viewBox="0 0 512 512" width="512" xmlns="http://www.w3.org/2000/svg" data-name="Layer 1"><path d="m342.048 42h-172.1c-3.309 0-5.948 2.233-5.948 5.547v66.453h12v-60h160v60h12v-66.453c0-3.314-2.639-5.547-5.952-5.547z" fill="#b6c7db"/><g id="_Path_" data-name=" Path "><path d="m26 112h460v352h-460z" fill="#74b4e8"/></g><path d="m26 112h30v352h-30z" fill="#66a7d3"/><path d="m486 241.98v92.74h-.43-459.14-.43v-92.74h.43 459.14z" fill="#d4e1f4"/><path d="m26.43 241.98h-.43v92.74h.43 29.57v-92.74z" fill="#bccee2"/><g fill="#9baebf"><path d="m184 276h12v24h-12z"/><path d="m151 276h12v24h-12z"/><path d="m117 276h12v24h-12z"/><path d="m84 276h12v24h-12z"/><path d="m51 276h12v24h-12z"/><path d="m217 276h12v24h-12z"/><path d="m250 276h12v24h-12z"/><path d="m283 276h12v24h-12z"/><path d="m316 276h12v24h-12z"/><path d="m349 276h12v24h-12z"/><path d="m383 276h12v24h-12z"/><path d="m416 276h12v24h-12z"/><path d="m449 276h12v24h-12z"/></g><path d="m59 145h15v12h-15z" fill="#fff"/><path d="m86 145h95v12h-95z" fill="#fff"/></svg>