<svg id="Layer_1" height="512" viewBox="0 0 512 512" width="512" xmlns="http://www.w3.org/2000/svg" data-name="Layer 1"><g id="_Path_" data-name=" Path "><path d="m74.44 373.02-14.79 50.27 27.71 27.71 1.35 1.35 50.27-14.79z" fill="#e1b7a3"/><path d="m88.71 452.35-41.18 12.12 12.12-41.18 27.71 27.71z" fill="#6d7486"/></g><path d="m80.289 295.863h340.012v25.173h-340.012z" fill="#ef96a9" transform="matrix(.707 -.707 .707 .707 -144.797 267.32)"/><path d="m56.919 264.616h340.012v40.927h-340.012z" fill="#eb7288" transform="matrix(.707 -.707 .707 .707 -135.116 243.951)"/><path d="m33.549 249.123h340.012v25.173h-340.012z" fill="#ef96a9" transform="matrix(.707 -.707 .707 .707 -125.436 220.581)"/><path d="m357.245 77.605-48.727 48.727 77.17 77.129 48.781-48.965z" fill="#d4e1f4"/><path d="m464.47 112.07-36.29 36.3h-.01l-64.53-64.54 36.29-36.3z" fill="#c0c5d9"/><path d="m308.429 97.825h68.907v28.284h-68.907z" fill="#bccee2" transform="matrix(.707 -.707 .707 .707 21.255 275.249)"/><path d="m366.121 61.538h51.329v28.284h-51.329z" fill="#a9afc4" transform="matrix(.707 -.707 .707 .707 61.268 299.246)"/><g fill="#a1b4c6"><path d="m333.599 110.214h27.311v12h-27.311z" transform="matrix(.707 -.707 .707 .707 19.533 279.584)"/><path d="m349.986 126.601h27.311v12h-27.311z" transform="matrix(.707 -.707 .707 .707 12.745 295.971)"/><path d="m365.743 142.359h27.311v12h-27.311z" transform="matrix(.707 -.707 .707 .707 6.218 311.729)"/><path d="m382.131 158.746h27.311v12h-27.311z" transform="matrix(.707 -.707 .707 .707 -.57 328.116)"/></g></svg>