<svg id="Layer_1" height="512" viewBox="0 0 512 512" width="512" xmlns="http://www.w3.org/2000/svg" data-name="Layer 1"><g id="_Path_" data-name=" Path "><path d="m404.78 404.69v92.31h-297.56v-93.1l296.95.79z" fill="#b3d1e7"/><path d="m404.78 15v389.69h-.61l-296.95-.79v-388.9h88a61.4 61.4 0 0 0 121.56 0z" fill="#bad79d"/></g><circle cx="256" cy="184.47" fill="#74b4e8" r="74"/><path d="m107.22 403.9v93.1h30v-93.02z" fill="#99bace"/><path d="m137.22 403.9v-388.9h-30v388.9l30 .08z" fill="#9cb77e"/><path d="m212 184.47a74.023 74.023 0 0 1 59-72.477 74 74 0 1 0 0 144.954 74.023 74.023 0 0 1 -59-72.477z" fill="#66a7d3"/><g fill="#7fa6ba"><path d="m140 436h12v27h-12z"/><path d="m176 436h12v27h-12z"/><path d="m213 436h12v27h-12z"/><path d="m250 436h12v27h-12z"/><path d="m287 436h12v27h-12z"/><path d="m324 436h12v27h-12z"/><path d="m360 436h12v27h-12z"/></g><path d="m250 127v12.4a26.164 26.164 0 0 0 6 51.631 14.061 14.061 0 0 1 14.167 14.024c0 7.321-5.583 13.95-12.715 13.95h-2.9c-7.132 0-12.715-6-12.715-14h-12a25.892 25.892 0 0 0 20.163 25.652v11.343h12v-11.343a26.164 26.164 0 0 0 -6-51.631 14.132 14.132 0 1 1 14.167-14.026h12a25.834 25.834 0 0 0 -20.167-25.6v-12.4z" fill="#4b8fad"/><path d="m216 298h80v12h-80z" fill="#839b65"/><path d="m179 327h154v12h-154z" fill="#839b65"/><path d="m216 356h80v12h-80z" fill="#839b65"/><path d="m132 45h12v15h-12z" fill="#fff"/><path d="m132 71h12v96h-12z" fill="#fff"/></svg>