<svg width="106" height="45" viewBox="0 0 106 45" fill="none" xmlns="http://www.w3.org/2000/svg">
<path fill-rule="evenodd" clip-rule="evenodd" d="M13.4051 36.0248C11.5428 36.0248 10.0331 34.5155 10.0324 32.6535L10.0324 32.6521L10.0324 14.611C10.8879 15.4535 12.062 15.9734 13.3576 15.9734C14.7018 15.9734 15.9153 15.4137 16.7777 14.5147L16.7777 28.1223L16.7633 28.1377L16.7777 28.1513L16.7777 32.6521C16.7777 34.5148 15.2677 36.0248 13.4051 36.0248ZM18.1317 28.6603L18.1317 32.6521L18.1317 32.762L18.1305 32.762C18.0721 35.3217 15.9788 37.3788 13.4051 37.3788C10.8313 37.3788 8.73803 35.3217 8.67965 32.762L8.6784 32.762L8.6784 32.6521L8.6784 11.9894C8.63904 11.7436 8.61858 11.4914 8.61858 11.2344C8.61858 8.61713 10.7403 6.49542 13.3576 6.49542C15.9575 6.49542 18.0684 8.58905 18.0963 11.1823L18.1317 11.1823L18.1317 14.3713L24.9377 7.74754L24.9167 7.72505C25.028 7.62126 25.143 7.52384 25.2611 7.43278L25.6256 7.07808L25.6863 7.14047C27.5706 5.99089 30.065 6.2816 31.6294 7.95894C33.4184 9.87718 33.3137 12.8825 31.3955 14.6716L31.3633 14.6371L25.7744 20.5604L33.6089 30.5599L33.6024 30.565C34.6144 31.8132 34.9663 33.5455 34.3794 35.1666C33.4883 37.6275 30.771 38.9002 28.3101 38.0091C27.7883 37.8202 27.3198 37.5491 26.9142 37.2158L26.8948 37.2312L26.8176 37.1342C26.3755 36.7506 26.0127 36.2913 25.7422 35.7839L19.1826 27.5465L18.1317 28.6603ZM20.1213 26.5517L24.8346 21.5564L30.5532 28.8553C28.3901 28.5632 26.2409 29.8039 25.4676 31.9399C25.346 32.2756 25.2647 32.6161 25.2212 32.956L20.1213 26.5517ZM26.8852 35.0456C26.4941 34.2492 26.4148 33.301 26.7407 32.4008C27.3771 30.643 29.318 29.734 31.0759 30.3704C32.8337 31.0069 33.7427 32.9478 33.1062 34.7056C32.4698 36.4634 30.5289 37.3725 28.7711 36.736C28.4058 36.6038 28.0771 36.4151 27.7914 36.1836L26.8852 35.0456ZM26.1441 8.46277L18.1317 16.2607L18.1317 26.6873L30.5022 13.5767L30.542 13.6143C31.8455 12.3283 31.8961 10.2301 30.6392 8.88244C29.4512 7.60863 27.5129 7.45342 26.1441 8.46277ZM10.0324 11.1823L9.97297 11.1823C10.0008 9.33687 11.5055 7.84941 13.3576 7.84941C15.227 7.84941 16.7426 9.36492 16.7426 11.2344C16.7426 13.1039 15.227 14.6194 13.3576 14.6194C11.7058 14.6194 10.3303 13.4363 10.0324 11.8713L10.0324 11.1823Z" fill="#333333"/>
<path d="M45.6979 24.0415L44.002 25.614V27.8494H42.522V16.4103H44.002V23.7486L48.4574 19.6786H50.2457L46.8079 23.0548L50.5849 27.8494H48.7658L45.6979 24.0415ZM51.9165 19.6786H53.3965V27.8494H51.9165V19.6786ZM52.6565 18.1061C52.3687 18.1061 52.1272 18.0136 51.9319 17.8286C51.7469 17.6436 51.6544 17.4175 51.6544 17.1503C51.6544 16.8831 51.7469 16.6569 51.9319 16.4719C52.1272 16.2767 52.3687 16.179 52.6565 16.179C52.9443 16.179 53.1807 16.2715 53.3657 16.4565C53.5609 16.6312 53.6586 16.8522 53.6586 17.1194C53.6586 17.3969 53.5609 17.6333 53.3657 17.8286C53.1807 18.0136 52.9443 18.1061 52.6565 18.1061ZM59.7219 27.9419C58.9099 27.9419 58.1802 27.762 57.5327 27.4023C56.8852 27.0426 56.3765 26.5492 56.0065 25.9223C55.6468 25.2851 55.4669 24.5656 55.4669 23.764C55.4669 22.9623 55.6468 22.248 56.0065 21.6211C56.3765 20.9839 56.8852 20.4905 57.5327 20.1411C58.1802 19.7814 58.9099 19.6015 59.7219 19.6015C60.5338 19.6015 61.2584 19.7814 61.8956 20.1411C62.5431 20.4905 63.0467 20.9839 63.4064 21.6211C63.7764 22.248 63.9614 22.9623 63.9614 23.764C63.9614 24.5656 63.7764 25.2851 63.4064 25.9223C63.0467 26.5492 62.5431 27.0426 61.8956 27.4023C61.2584 27.762 60.5338 27.9419 59.7219 27.9419ZM59.7219 26.6469C60.246 26.6469 60.7137 26.5287 61.1248 26.2923C61.5462 26.0456 61.875 25.7065 62.1114 25.2748C62.3478 24.8329 62.466 24.3293 62.466 23.764C62.466 23.1987 62.3478 22.7002 62.1114 22.2686C61.875 21.8266 61.5462 21.4875 61.1248 21.2511C60.7137 21.0147 60.246 20.8965 59.7219 20.8965C59.1977 20.8965 58.7249 21.0147 58.3035 21.2511C57.8924 21.4875 57.5635 21.8266 57.3169 22.2686C57.0805 22.7002 56.9623 23.1987 56.9623 23.764C56.9623 24.3293 57.0805 24.8329 57.3169 25.2748C57.5635 25.7065 57.8924 26.0456 58.3035 26.2923C58.7249 26.5287 59.1977 26.6469 59.7219 26.6469ZM68.3515 27.9419C67.6835 27.9419 67.0411 27.8545 66.4245 27.6798C65.8078 27.4948 65.3247 27.2635 64.9753 26.986L65.592 25.8144C65.9517 26.0713 66.3885 26.2769 66.9024 26.431C67.4163 26.5852 67.9353 26.6623 68.4594 26.6623C69.7544 26.6623 70.4019 26.2923 70.4019 25.5523C70.4019 25.3056 70.3146 25.1104 70.1398 24.9665C69.9651 24.8226 69.7442 24.7198 69.4769 24.6581C69.22 24.5862 68.85 24.5091 68.3669 24.4269C67.7092 24.3241 67.1696 24.2059 66.7482 24.0723C66.3371 23.9387 65.9825 23.7126 65.6845 23.394C65.3864 23.0754 65.2374 22.6283 65.2374 22.0527C65.2374 21.3127 65.5457 20.7218 66.1624 20.2798C66.779 19.8276 67.6064 19.6015 68.6444 19.6015C69.1892 19.6015 69.7339 19.6683 70.2786 19.8019C70.8233 19.9355 71.2704 20.1154 71.6198 20.3415L70.9878 21.5132C70.3197 21.0815 69.5335 20.8657 68.629 20.8657C68.0021 20.8657 67.5242 20.9684 67.1953 21.174C66.8664 21.3795 66.702 21.6519 66.702 21.9911C66.702 22.2583 66.7945 22.469 66.9795 22.6232C67.1645 22.7773 67.3906 22.8904 67.6578 22.9623C67.9353 23.0343 68.3207 23.1165 68.814 23.209C69.4718 23.322 70.0011 23.4454 70.4019 23.579C70.813 23.7023 71.1625 23.9181 71.4503 24.2265C71.738 24.5348 71.8819 24.9665 71.8819 25.5215C71.8819 26.2615 71.5633 26.8524 70.9261 27.2944C70.2992 27.726 69.441 27.9419 68.3515 27.9419ZM76.9074 24.0415L75.2115 25.614V27.8494H73.7315V16.4103H75.2115V23.7486L79.6669 19.6786H81.4552L78.0173 23.0548L81.7944 27.8494H79.9752L76.9074 24.0415ZM83.126 19.6786H84.606V27.8494H83.126V19.6786ZM83.866 18.1061C83.5782 18.1061 83.3367 18.0136 83.1414 17.8286C82.9564 17.6436 82.8639 17.4175 82.8639 17.1503C82.8639 16.8831 82.9564 16.6569 83.1414 16.4719C83.3367 16.2767 83.5782 16.179 83.866 16.179C84.1538 16.179 84.3902 16.2715 84.5752 16.4565C84.7704 16.6312 84.8681 16.8522 84.8681 17.1194C84.8681 17.3969 84.7704 17.6333 84.5752 17.8286C84.3902 18.0136 84.1538 18.1061 83.866 18.1061ZM92.0259 27.3715C91.8101 27.5565 91.5429 27.7003 91.2243 27.8031C90.9057 27.8956 90.5768 27.9419 90.2376 27.9419C89.4154 27.9419 88.7782 27.7209 88.326 27.279C87.8737 26.837 87.6476 26.2049 87.6476 25.3827V20.8965H86.2601V19.6786H87.6476V17.8903H89.1276V19.6786H91.4709V20.8965H89.1276V25.321C89.1276 25.763 89.2355 26.1022 89.4514 26.3385C89.6775 26.5749 89.9961 26.6931 90.4072 26.6931C90.8594 26.6931 91.2448 26.5647 91.5634 26.3077L92.0259 27.3715ZM97.0438 27.9419C96.2318 27.9419 95.5021 27.762 94.8546 27.4023C94.2071 27.0426 93.6984 26.5492 93.3284 25.9223C92.9687 25.2851 92.7888 24.5656 92.7888 23.764C92.7888 22.9623 92.9687 22.248 93.3284 21.6211C93.6984 20.9839 94.2071 20.4905 94.8546 20.1411C95.5021 19.7814 96.2318 19.6015 97.0438 19.6015C97.8557 19.6015 98.5803 19.7814 99.2175 20.1411C99.865 20.4905 100.369 20.9839 100.728 21.6211C101.098 22.248 101.283 22.9623 101.283 23.764C101.283 24.5656 101.098 25.2851 100.728 25.9223C100.369 26.5492 99.865 27.0426 99.2175 27.4023C98.5803 27.762 97.8557 27.9419 97.0438 27.9419ZM97.0438 26.6469C97.5679 26.6469 98.0356 26.5287 98.4467 26.2923C98.8681 26.0456 99.197 25.7065 99.4334 25.2748C99.6697 24.8329 99.7879 24.3293 99.7879 23.764C99.7879 23.1987 99.6697 22.7002 99.4334 22.2686C99.197 21.8266 98.8681 21.4875 98.4467 21.2511C98.0356 21.0147 97.5679 20.8965 97.0438 20.8965C96.5196 20.8965 96.0468 21.0147 95.6255 21.2511C95.2144 21.4875 94.8855 21.8266 94.6388 22.2686C94.4024 22.7002 94.2842 23.1987 94.2842 23.764C94.2842 24.3293 94.4024 24.8329 94.6388 25.2748C94.8855 25.7065 95.2144 26.0456 95.6255 26.2923C96.0468 26.5287 96.5196 26.6469 97.0438 26.6469Z" fill="#333333"/>
</svg>
