<svg id="Layer_1" height="512" viewBox="0 0 512 512" width="512" xmlns="http://www.w3.org/2000/svg" data-name="Layer 1"><g id="_Path_" data-name=" Path "><path d="m473.53 144h-435.06-.47v323.81l436 2v-325.81z" fill="#dfe8f4"/><path d="m38 70v74h.47 435.06.47v-74z" fill="#74b4e8"/></g><path d="m332 42h91v52h-91z" fill="#c0c5d9"/><path d="m90 42h90v52h-90z" fill="#c0c5d9"/><g fill="#e87187"><path d="m370.95 317.44h42.86v40.91h-42.86z"/><path d="m370.95 251.19h42.86v40.92h-42.86z"/><path d="m370.95 184.95h42.86v40.92h-42.86z"/><path d="m302.76 383.68h42.86v40.91h-42.86z"/><path d="m302.76 317.44h42.86v40.91h-42.86z"/><path d="m302.76 251.19h42.86v40.92h-42.86z"/><path d="m302.76 184.95h42.86v40.92h-42.86z"/><path d="m234.57 383.68h42.86v40.91h-42.86z"/><path d="m234.57 317.44h42.86v40.91h-42.86z"/><path d="m234.57 251.19h42.86v40.92h-42.86z"/><path d="m234.57 184.95h42.86v40.92h-42.86z"/><path d="m166.38 383.68h42.86v40.91h-42.86z"/><path d="m166.38 317.44h42.86v40.91h-42.86z"/><path d="m166.38 251.19h42.86v40.92h-42.86z"/></g><path d="m166.38 184.95h42.86v40.92h-42.86z" fill="#bad79d"/><path d="m98.19 383.68h42.86v40.91h-42.86z" fill="#e87187"/><path d="m98.19 317.44h42.86v40.91h-42.86z" fill="#e87187"/><path d="m98.19 251.19h42.86v40.92h-42.86z" fill="#e87187"/><path d="m38.47 144h-.47v323.81h30v-323.81z" fill="#bccee2"/><path d="m68 144v-74h-30v74h.47z" fill="#66a7d3"/><path d="m66 166h12v15h-12z" fill="#fff"/><path d="m66 193h12v155h-12z" fill="#fff"/></svg>