<svg id="Layer_1" height="512" viewBox="0 0 512 512" width="512" xmlns="http://www.w3.org/2000/svg" data-name="Layer 1"><g id="_Path_" fill="#74b4e8" data-name=" Path "><path d="m400.15 311.49h21.54v143.92h-21.54z"/><path d="m90.31 311.49h21.54v143.92h-21.54z"/></g><path d="m493.81 324.12v118.66h-26.56-.07v-118.66h.07z" fill="#c9cad1"/><path d="m44.82 324.12v118.66h-.07-26.56v-118.66h26.56z" fill="#c9cad1"/><path d="m443.74 244.34v67.15h-22.25v-67.15c0-91.26-74.24-165.5-165.49-165.5s-165.49 74.24-165.49 165.5v67.15h-22.25v-67.15c0-103.52 84.22-187.75 187.74-187.75s187.74 84.23 187.74 187.75z" fill="#d4e1f4"/><g fill="#7d8696"><path d="m421 311h46v144h-46z"/><path d="m45 311h46v144h-46z"/></g></svg>