<svg id="Layer_1" height="512" viewBox="0 0 512 512" width="512" xmlns="http://www.w3.org/2000/svg" data-name="Layer 1"><g id="_Path_" data-name=" Path "><path d="m173 13h166v36h-166z" fill="#ea7288"/></g><path d="m191.48 48.77h129.04v149.79h-129.04z" fill="#ef96a9"/><path d="m271.34 247.34v181.8l-15.34 70.12-15.34-70.12v-181.8z" fill="#d4e1f4"/><path d="m320.52 197h-129.04l-35.48 21.47v28.53h200v-28.53z" fill="#ea7288"/><path d="m191.48 48.77h30v149.79h-30z" fill="#ef7f98"/><path d="m173 13h30v36h-30z" fill="#d3627a"/><path d="m221.48 197h-30l-35.48 21.47v28.53h30v-28.53z" fill="#d3627a"/><g fill="#c45b76"><path d="m263 74h12v97h-12z"/><path d="m237 74h12v97h-12z"/><path d="m211 74h12v97h-12z"/><path d="m289 74h12v97h-12z"/></g><path d="m178 219h15v12h-15z" fill="#fff"/><path d="m205 219h68v12h-68z" fill="#fff"/></svg>