<svg id="Layer_1" height="512" viewBox="0 0 512 512" width="512" xmlns="http://www.w3.org/2000/svg" data-name="Layer 1"><path d="m59 201h346v-100z" fill="#b3d1e7"/><path d="m162 39h190v162h-190z" fill="#bad79d"/><path d="m286.59 74h-59.15c-.39 24-13.44 38.46-30.44 39.24v87.76h120v-87.76c-16-.78-30.02-15.24-30.41-39.24z" fill="#e9fc7a"/><path d="m291.66 201.2h-69.29a34.646 34.646 0 0 1 69.29 0z" fill="#bad79d"/><path d="m59 200h394v272h-394z" fill="#eb7288"/><path d="m360.53 274.93h91.98v122.4h-91.98z" fill="#acb2ba"/><path d="m59 200h30v272h-30z" fill="#d3627a"/><path d="m361 275h30v122h-30z" fill="#989fa5"/><g fill="#6e757a"><path d="m391 301h32v12h-32z"/><path d="m391 331h32v12h-32z"/><path d="m391 361h32v12h-32z"/></g><path d="m91 224h12v15h-12z" fill="#fff"/><path d="m91 251h12v135h-12z" fill="#fff"/></svg>