<svg id="Layer_1" height="512" viewBox="0 0 512 512" width="512" xmlns="http://www.w3.org/2000/svg" data-name="Layer 1"><g id="_Path_" data-name=" Path "><path d="m31 60h450v353h-450z" fill="#b3c6dd"/></g><path d="m82 112v165 84h348v-249z" fill="#dfe8f4"/><path d="m449.24 413.55v38.48h-91.22v-38.48-.59h91.22z" fill="#a5adc4"/><path d="m153.98 413.55v38.48h-91.22v-38.48-.59h91.22z" fill="#a5adc4"/><circle cx="255.333" cy="236.667" fill="#74b4e8" r="71.347"/><path d="m417 216h33v41h-33z" fill="#eb7288"/><path d="m340.53 215.6h76.57v41.74h-76.57z" fill="#ef95a8"/><path d="m280.52 226.29-.05.02v20.31l.05.02h60.01v-20.35z" fill="#c9d5e2"/><circle cx="256" cy="237.222" fill="#7d8696" r="27.778"/><path d="m31 60h31v353h-31z" fill="#99adc1"/><path d="m113 112h-31v165 84h31v-84z" fill="#a0a2a5"/><path d="m214.987 236.667a71.359 71.359 0 0 1 55.846-69.639 71.347 71.347 0 1 0 0 139.277 71.359 71.359 0 0 1 -55.846-69.638z" fill="#66a7d3"/><path d="m65 277h33v56h-33z" fill="#a5adc4"/><path d="m65 140h33v56h-33z" fill="#a5adc4"/><g fill="#fff"><path d="m123 144h12v15h-12z"/><path d="m123 171h12v145h-12z"/></g></svg>