<svg id="Layer_1" height="512" viewBox="0 0 512 512" width="512" xmlns="http://www.w3.org/2000/svg" data-name="Layer 1"><path d="m24 234h464v226h-464z" fill="#dfe8f4"/><path d="m24 234h30v226h-30z" fill="#c5cfd8"/><path d="m295.47 312.4h-271-.47v68.53h.47 271l.45-.21v-68.11z" fill="#74b4e8"/><g id="_Path_" data-name=" Path "><path d="m24 135v99h464v-99z" fill="#a5adc4"/></g><path d="m446.77 52v83.32h-30v-53.32h-321.54v53.32h-30v-83.32z" fill="#7d8696"/><path d="m66.93 164.06h378.14v44.91h-378.14z" fill="#dfe8f4"/><path d="m112.93 164.06h20v44.91h-20z" fill="#eb7288"/><path d="m442.53 346.66c0 .78-.01 1.56-.04 2.34h-163.49l-.43.02c-.03-.79-.04-1.57-.04-2.36a81.934 81.934 0 0 1 1.94-17.77l.53.11h159l.59-.13a82.117 82.117 0 0 1 1.94 17.79z" fill="#bdbddb"/><path d="m279 349h163.49a82 82 0 0 1 -3.04 20h-157.84a81.835 81.835 0 0 1 -3.04-19.98z" fill="#cccce2"/><path d="m440.59 328.87-.59.13h-159l-.53-.11a81.121 81.121 0 0 1 5.45-16.28c.57-1.27 1.18-2.51 1.83-3.74l.25.13h145l.3-.16a81.142 81.142 0 0 1 7.29 20.03z" fill="#cccce2"/><path d="m281.61 369h157.84a81.864 81.864 0 0 1 -8.68 20h-140.48a82.6 82.6 0 0 1 -4.37-8.28 81.208 81.208 0 0 1 -4.31-11.72z" fill="#bdbddb"/><path d="m433.3 308.84-.3.16h-145l-.25-.13a81.915 81.915 0 0 1 14.87-20.26l.38.39h115l.41-.42a81.99 81.99 0 0 1 14.89 20.26z" fill="#bdbddb"/><path d="m290.29 389h140.48a82.3 82.3 0 0 1 -16.98 20h-106.52a82.52 82.52 0 0 1 -16.98-20z" fill="#cccce2"/><path d="m418.41 288.58-.41.42h-115l-.38-.39a81.987 81.987 0 0 1 115.79-.03z" fill="#cccce2"/><path d="m307.27 409h106.52a81.972 81.972 0 0 1 -106.52 0z" fill="#bdbddb"/><path d="m24 135h30v99h-30z" fill="#8f97aa"/><path d="m24.47 312.4h-.47v68.53h.47 29.53v-68.53z" fill="#66a7d3"/><path d="m186 334h12v25h-12z" fill="#5696ba"/><path d="m156 334h12v25h-12z" fill="#5696ba"/><path d="m125 334h12v25h-12z" fill="#5696ba"/><path d="m94 334h12v25h-12z" fill="#5696ba"/><path d="m63 334h12v25h-12z" fill="#5696ba"/><path d="m217 334h12v25h-12z" fill="#5696ba"/><g fill="#ccd3df"><path d="m85 164h12v25h-12z"/><path d="m145 164h12v25h-12z"/><path d="m175 164h12v25h-12z"/><path d="m205 164h12v25h-12z"/><path d="m235 164h12v25h-12z"/><path d="m265 164h12v25h-12z"/><path d="m295 164h12v25h-12z"/><path d="m325 164h12v25h-12z"/><path d="m355 164h12v25h-12z"/><path d="m385 164h12v25h-12z"/><path d="m415 164h12v25h-12z"/></g><path d="m52 259h15v12h-15z" fill="#fff"/><path d="m79 259h155v12h-155z" fill="#fff"/></svg>