<svg id="Layer_1" height="512" viewBox="0 0 512 512" width="512" xmlns="http://www.w3.org/2000/svg" data-name="Layer 1"><g id="_Path_" data-name=" Path "><path d="m18 217h476v135h-476z" fill="#6d7486"/></g><path d="m350.67 129.38a87.225 87.225 0 1 1 -87.23 87.22 87.22 87.22 0 0 1 87.23-87.22zm56.28 87.22a56.28 56.28 0 1 0 -56.28 56.28 56.283 56.283 0 0 0 56.28-56.28z" fill="#a0eaea"/><path d="m350.67 160.32a56.28 56.28 0 1 1 -56.28 56.28 56.283 56.283 0 0 1 56.28-56.28zm19.76 56.28a19.765 19.765 0 1 0 -19.76 19.77 19.764 19.764 0 0 0 19.76-19.77z" fill="#88ced8"/><path d="m350.67 196.84a19.765 19.765 0 1 1 -19.77 19.76 19.764 19.764 0 0 1 19.77-19.76z" fill="#a0eaea"/><path d="m454.72 352.29v30.33h-92.14v-30.33-.35h92.14z" fill="#c0c5d9"/><path d="m149.42 352.29v30.33h-92.14v-30.33-.35h92.14z" fill="#c0c5d9"/><path d="m18 217h30v135h-30z" fill="#4a5160"/><path d="m18 272.27h195.67v52h-195.67z" fill="#b0b5ca"/><path d="m18 272.27h30v52h-30z" fill="#9a9fb2"/><g fill="#9197aa"><path d="m168 287h12v21h-12z"/><path d="m138 287h12v21h-12z"/><path d="m108 287h12v21h-12z"/><path d="m78 287h12v21h-12z"/><path d="m48 287h12v21h-12z"/></g><path d="m37 234h15v12h-15z" fill="#fff"/><path d="m64 234h95v12h-95z" fill="#fff"/></svg>