<svg id="Layer_1" height="512" viewBox="0 0 512 512" width="512" xmlns="http://www.w3.org/2000/svg" data-name="Layer 1"><g id="_Path_" data-name=" Path "><path d="m22 159h427v194h-427z" fill="#acb2ba"/></g><g fill="#bad79d"><path d="m382.81 200.33v111.34h-81.53l21.76-111.34z"/><path d="m282.68 200.33-21.77 111.34h-70.65l21.77-111.34z"/><path d="m171.67 200.33-21.77 111.34h-59.77v-111.34z"/></g><path d="m489.63 213.22v85.56h-38.5-2.52v-85.56h2.52z" fill="#7d8696"/><path d="m22 159h30v194h-30z" fill="#989fa5"/><path d="m323.04 200-21.76 112h30l21.76-112z" fill="#9cb57f"/><path d="m212.03 200-21.77 112h30l21.77-112z" fill="#9cb57f"/><path d="m90 200h30v112h-30z" fill="#9cb57f"/><path d="m47 183h12v15h-12z" fill="#fff"/><path d="m47 210h12v95h-12z" fill="#fff"/></svg>