<svg id="Layer_1" height="512" viewBox="0 0 512 512" width="512" xmlns="http://www.w3.org/2000/svg" data-name="Layer 1"><g id="_Path_" data-name=" Path "><path d="m23 98h466v316h-466z" fill="#bacadd"/></g><path d="m23.07 295.5h465.86v60h-465.86z" fill="#eb7288"/><path d="m23 98h30v316h-30z" fill="#9fb0c1"/><path d="m23.07 295.5h30v60h-30z" fill="#d3627a"/><path d="m488.93 97.59-232.93 155.07-232.93-155.07z" fill="#d4e1f4"/><g fill="#bc516d"><path d="m190 315h12v21h-12z"/><path d="m160 315h12v21h-12z"/><path d="m130 315h12v21h-12z"/><path d="m100 315h12v21h-12z"/><path d="m70 315h12v21h-12z"/><path d="m220 315h12v21h-12z"/><path d="m250 315h12v21h-12z"/><path d="m280 315h12v21h-12z"/><path d="m310 315h12v21h-12z"/><path d="m340 315h12v21h-12z"/><path d="m370 315h12v21h-12z"/><path d="m400 315h12v21h-12z"/><path d="m430 315h12v21h-12z"/></g><path d="m48 151h12v15h-12z" fill="#fff"/><path d="m48 178h12v95h-12z" fill="#fff"/></svg>