<svg id="Layer_1" height="512" viewBox="0 0 512 512" width="512" xmlns="http://www.w3.org/2000/svg" data-name="Layer 1"><circle cx="256" cy="256" fill="#eb7288" r="228.93"/><path d="m211 184.27v143.46l122 93.16v-329.915z" fill="#74b4e8"/><path d="m128 184h83v144h-83z" fill="#b3d1e7"/><path d="m383.68 197.87v116.26h-49.71-.83v-116.26h.83z" fill="#f4d8a2"/><path d="m67.07 256c0-119.7 91.859-217.917 208.93-228.051-6.592-.57-13.26-.879-20-.879-126.44 0-228.93 102.49-228.93 228.93s102.49 228.93 228.93 228.93c6.74 0 13.408-.309 20-.879-117.071-10.134-208.93-108.351-208.93-228.051z" fill="#d3627a"/><path d="m128 184h30v144h-30z" fill="#9fbed1"/><path d="m256 21.069a234.931 234.931 0 0 0 -166.121 401.053 234.931 234.931 0 0 0 332.242-332.244 233.394 233.394 0 0 0 -166.121-68.809zm-157.636 392.567a222.926 222.926 0 0 1 -4.184-310.97l315.154 315.154a222.926 222.926 0 0 1 -310.97-4.184zm319.456-4.3-315.154-315.156a222.928 222.928 0 0 1 315.154 315.154z" fill="#bc4d6a"/></svg>