<svg id="Layer_1" height="512" viewBox="0 0 512 512" width="512" xmlns="http://www.w3.org/2000/svg" data-name="Layer 1"><path d="m72 206h368v270h-368z" fill="#9fe2e0"/><path d="m40 125h432v81h-432z" fill="#ef96a9"/><path d="m291 93.04h-.55v31.99.3h100.25v-.17-89.21z" fill="#fcdc9d"/><path d="m220.26 76.1v48.93.3h70.19v-.3-48.93z" fill="#f3ce7d"/><path d="m121.3 35.95v89.21.17h98.96v-.3-32.41z" fill="#fcdc9d"/><path d="m211 206.15h89v269.9h-89z" fill="#6ad3d1"/><path d="m211 125.33h89v80.82h-89z" fill="#eb7288"/><path d="m72 206h30v270h-30z" fill="#8ececb"/><path d="m40 125h30v81h-30z" fill="#d3627a"/><path d="m151.3 53.13-30-17.18v89.21.17h30v-.17z" fill="#ddbd85"/><g fill="#58bab5"><path d="m244 379h24v12h-24z"/><path d="m244 409h24v12h-24z"/><path d="m244 439h24v12h-24z"/><path d="m244 349h24v12h-24z"/><path d="m244 319h24v12h-24z"/><path d="m244 289h24v12h-24z"/><path d="m244 259h24v12h-24z"/><path d="m244 229h24v12h-24z"/></g><path d="m103 231h12v15h-12z" fill="#fff"/><path d="m103 258h12v95h-12z" fill="#fff"/></svg>