<svg id="Layer_1" height="512" viewBox="0 0 512 512" width="512" xmlns="http://www.w3.org/2000/svg" data-name="Layer 1"><g id="_Path_" data-name=" Path "><path d="m104.9 386h302.2v100h-302.2z" fill="#9fe2e0"/><path d="m105 128h302v258h-302z" fill="#d4e1f4"/></g><path d="m105 386h-.1v100h30v-100z" fill="#8ececb"/><path d="m135 386v-258h-30v258h29.9z" fill="#bccee2"/><path d="m339 219v-116.171c0-45.672-37.328-82.829-83-82.829s-83 37.157-83 82.829v116.171h12v-116.171a71 71 0 0 1 142 0v116.171z" fill="#8ececb"/><g fill="#77afab"><path d="m199 420h12v28h-12z"/><path d="m165 420h12v28h-12z"/><path d="m132 420h12v28h-12z"/><path d="m233 420h12v28h-12z"/><path d="m267 420h12v28h-12z"/><path d="m301 420h12v28h-12z"/><path d="m335 420h12v28h-12z"/><path d="m368 420h12v28h-12z"/></g><path d="m131 156h12v15h-12z" fill="#fff"/><path d="m131 183h12v95h-12z" fill="#fff"/></svg>