<svg id="Layer_1" height="512" viewBox="0 0 512 512" width="512" xmlns="http://www.w3.org/2000/svg" data-name="Layer 1"><g id="_Path_" data-name=" Path "><path d="m37 177h438v59h-438z" fill="#eb7288"/></g><path d="m447.1 78.44-15.59 98.48h-49.14l16.88-106.38z" fill="#d4e1f4"/><path d="m112.75 70.54 16.88 106.38h-49.14l-15.59-98.48z" fill="#d4e1f4"/><path d="m459.74 235.7-28.75 205.76h-349.98l-28.75-205.76z" fill="#b3d1e7"/><path d="m358.19 283.25h32.42v104.27h-32.42z" fill="#86a8ba"/><path d="m298.99 283.25h32.42v104.27h-32.42z" fill="#86a8ba"/><path d="m239.79 283.25h32.42v104.27h-32.42z" fill="#86a8ba"/><path d="m180.59 283.25h32.42v104.27h-32.42z" fill="#86a8ba"/><path d="m121.39 283.25h32.42v104.27h-32.42z" fill="#86a8ba"/><path d="m37 177h30v59h-30z" fill="#d3627a"/><path d="m52.26 235.7 28.75 205.76h30l-28.75-205.76z" fill="#99bace"/><g fill="#b74f6a"><path d="m188 196h12v22h-12z"/><path d="m157 196h12v22h-12z"/><path d="m126 196h12v22h-12z"/><path d="m95 196h12v22h-12z"/><path d="m64 196h12v22h-12z"/><path d="m219 196h12v22h-12z"/><path d="m250 196h12v22h-12z"/><path d="m281 196h12v22h-12z"/><path d="m312 196h12v22h-12z"/><path d="m343 196h12v22h-12z"/><path d="m374 196h12v22h-12z"/><path d="m405 196h12v22h-12z"/><path d="m436 196h12v22h-12z"/></g><path d="m80.133 256.018h12v14.803h-12z" fill="#fff" transform="matrix(.99 -.138 .138 .99 -35.614 14.449)"/><path d="m89 282.579h12v85.843h-12z" fill="#fff" transform="matrix(.99 -.14 .14 .99 -44.577 16.48)"/></svg>