<svg id="Layer_1" height="512" viewBox="0 0 512 512" width="512" xmlns="http://www.w3.org/2000/svg" data-name="Layer 1"><path d="m337.97 110.33-178.54 102.68 13.19 17.79 171.72-98.75.25-.13z" fill="#d4e1f4"/><path d="m344.58 380-171.691-98.851-13.279 17.736 178.454 102.688 6.526-21.573z" fill="#d4e1f4"/><g id="_Path_" data-name=" Path "><path d="m170.63 281 .259.149.111-.149z" fill="#d4e1f4"/></g><g fill="#74b4e8"><path d="m394 46a58.335 58.335 0 1 1 -58.33 58.33 58.33 58.33 0 0 1 58.33-58.33z"/><circle cx="122" cy="256" r="58.33"/><path d="m394 349.33a58.335 58.335 0 1 1 -58.33 58.34 58.332 58.332 0 0 1 58.33-58.34z"/></g><path d="m394 162.67a58.417 58.417 0 0 0 15-1.956 58.344 58.344 0 0 1 0-112.758 58.337 58.337 0 1 0 -15 114.714z" fill="#66a7d3"/><path d="m93.67 256a58.34 58.34 0 0 1 43.33-56.375 58.331 58.331 0 1 0 0 112.749 58.338 58.338 0 0 1 -43.33-56.374z" fill="#66a7d3"/><path d="m365.67 407.67a58.353 58.353 0 0 1 43.33-56.384 58.335 58.335 0 1 0 0 112.758 58.349 58.349 0 0 1 -43.33-56.374z" fill="#66a7d3"/><path d="m394 78v-12a38.255 38.255 0 0 0 -12.294 2.016l3.848 11.366a26.283 26.283 0 0 1 8.446-1.382z" fill="#fff"/><path d="m355.667 104h12a26.971 26.971 0 0 1 11.393-21.522l-6.819-9.958a39.033 39.033 0 0 0 -16.574 31.48z" fill="#fff"/></svg>