<svg id="Layer_1" height="512" viewBox="0 0 512 512" width="512" xmlns="http://www.w3.org/2000/svg" data-name="Layer 1"><g id="_Path_" data-name=" Path "><path d="m30 132h-1v308h454v-308z" fill="#f5db9f"/></g><path d="m241.96 132.14h-212-.5v-60.2h149.56z" fill="#ddc390"/><path d="m29.96 132.14h-.5v-.14h-.46v308h30v-307.86z" fill="#e0c690"/><path d="m29.96 132.14h29.04v-.14h.46v-60.06h-30v60.06.14z" fill="#c4a97a"/><path d="m29.46 253.5h453.08v70h-453.08z" fill="#9fe2e0"/><path d="m29.46 253.5h30v70h-30z" fill="#8ececb"/><g fill="#71afaa"><path d="m175 278h12v21h-12z"/><path d="m145 278h12v21h-12z"/><path d="m115 278h12v21h-12z"/><path d="m85 278h12v21h-12z"/><path d="m55 278h12v21h-12z"/><path d="m205 278h12v21h-12z"/><path d="m235 278h12v21h-12z"/><path d="m265 278h12v21h-12z"/><path d="m295 278h12v21h-12z"/><path d="m325 278h12v21h-12z"/><path d="m355 278h12v21h-12z"/><path d="m385 278h12v21h-12z"/><path d="m415 278h12v21h-12z"/><path d="m445 278h12v21h-12z"/></g><path d="m56 164h15v12h-15z" fill="#fff"/><path d="m83 164h145v12h-145z" fill="#fff"/></svg>