<svg id="Layer_1" height="512" viewBox="0 0 512 512" width="512" xmlns="http://www.w3.org/2000/svg" data-name="Layer 1"><path d="m385.31 98.3-22.97 22.97 20.18 15.86 20.81-20.81z" fill="#c9cad1"/><path d="m243.26 88.79.01.15h25.46l.01-.15v-48.06h-25.48z" fill="#c9cad1"/><path d="m125.62 98.3-18.03 18.02 21.21 21.21.1.11 20.08-15.91-.11-.17z" fill="#c9cad1"/><g id="_Path_" data-name=" Path "><path d="m390.429 62.233h26.577v71.365h-26.577z" fill="#8a93a0" transform="matrix(.707 -.707 .707 .707 49.009 314.149)"/><path d="m218 14h76v27h-76z" fill="#8a93a0"/><path d="m361.56 434.22-25.03 14.24.14.29 37.53 49.1 24.17-15.83z" fill="#74b4e8"/><path d="m150.48 434.44-36.86 47.52 24.13 15.9 37.92-49.26.02-.04-25.12-14.25z" fill="#74b4e8"/><path d="m71.525 84.627h71.365v26.577h-71.365z" fill="#8a93a0" transform="matrix(.707 -.707 .707 .707 -37.836 104.486)"/></g><path d="m256 88.52c104.36 0 188.95 84.6 188.95 188.95s-84.59 188.96-188.95 188.96-188.95-84.6-188.95-188.96 84.59-188.95 188.95-188.95z" fill="#d4e1f4"/><path d="m256 119.37a158.105 158.105 0 1 1 -158.11 158.1 158.1 158.1 0 0 1 158.11-158.1z" fill="#e87187"/><path d="m137.89 277.47a158.13 158.13 0 0 1 138.11-156.846 159.8 159.8 0 0 0 -20-1.254 158.105 158.105 0 1 0 20 314.955 158.14 158.14 0 0 1 -138.11-156.855z" fill="#d3627a"/><path d="m250 205v78.739a6 6 0 0 0 2.736 5.034l57.993 37.59 6.527-10.069-55.256-35.816v-75.478z" fill="#d4e1f4"/><g fill="#b24965"><path d="m249 122h12v29h-12z"/><path d="m249 404h12v29h-12z"/><path d="m382 272h29v12h-29z"/><path d="m100 272h29v12h-29z"/><path d="m340.506 171.055h29.389v11.999h-29.389z" transform="matrix(.707 -.707 .707 .707 -21.168 303.001)"/><path d="m141.006 370.554h29.389v11.999h-29.389z" transform="matrix(.707 -.707 .707 .707 -220.652 220.365)"/><path d="m349.2 361.86h11.999v29.389h-11.999z" transform="matrix(.707 -.707 .707 .707 -162.228 361.455)"/><path d="m149.7 162.36h11.999v29.389h-11.999z" transform="matrix(.707 -.707 .707 .707 -79.593 161.955)"/></g><path d="m219.5 177.422 4.113 11.273a94.15 94.15 0 0 1 13.322-3.773l-2.406-11.755a105.963 105.963 0 0 0 -15.029 4.255z" fill="#fff"/><path d="m163.442 258.443a94.4 94.4 0 0 1 46.552-63.5l-5.853-10.476a106.383 106.383 0 0 0 -52.454 71.578z" fill="#fff"/></svg>