<svg id="Layer_1" height="512" viewBox="0 0 512 512" width="512" xmlns="http://www.w3.org/2000/svg" data-name="Layer 1"><path d="m295 13h46v486h-46z" fill="#b3c6dd"/><g id="_Path_" data-name=" Path "><path d="m216.5 13h79v486h-79z" fill="#d4e1f4"/><path d="m171.42 13h45.08v486h-45.08z" fill="#b3c6dd"/></g><path d="m216 13h30v486h-30z" fill="#e6f1ff"/><g fill="#8ea6bf"><path d="m312 40h29v12h-29z"/><path d="m321 70h20v12h-20z"/><path d="m312 100h29v12h-29z"/><path d="m321 130h20v12h-20z"/><path d="m312 160h29v12h-29z"/><path d="m321 190h20v12h-20z"/><path d="m312 220h29v12h-29z"/><path d="m321 250h20v12h-20z"/><path d="m312 280h29v12h-29z"/><path d="m321 310h20v12h-20z"/><path d="m312 340h29v12h-29z"/><path d="m321 370h20v12h-20z"/><path d="m312 400h29v12h-29z"/><path d="m321 430h20v12h-20z"/><path d="m312 460h29v12h-29z"/></g><path d="m237 54h12v15h-12z" fill="#fff"/><path d="m237 81h12v155h-12z" fill="#fff"/></svg>