<svg id="Layer_1" height="512" viewBox="0 0 512 512" width="512" xmlns="http://www.w3.org/2000/svg" data-name="Layer 1"><g id="_Path_" data-name=" Path "><path d="m440.67 117.51v131.88a254.173 254.173 0 0 1 -156.01 234.46l-30.94 13.41-29.57-12.35a254.1 254.1 0 0 1 -152.82-233.09v-134.31l184.67-102.77z" fill="#c5cfd8"/></g><path d="m255.785 45.15-2.255 423.24 20.8-9.02a227.511 227.511 0 0 0 139.67-209.97v-116.26z" fill="#66a7d3"/><path d="m98 133.14v118.68a227.474 227.474 0 0 0 136.71 208.68l18.845 7.89 2.33-423.24z" fill="#74b4e8"/><path d="m256 164.55a91.45 91.45 0 0 1 0 182.9c-.59 0-1.18-.01-1.77-.02a91.445 91.445 0 0 1 1.1-182.87c.22-.01.45-.01.67-.01z" fill="#bad79d"/><path d="m128 251.82v-118.68l127.792-71.219.093-16.771-157.885 87.99v118.68a227.474 227.474 0 0 0 136.71 208.68l18.845 7.89.072-13.075a227.476 227.476 0 0 1 -125.627-203.495z" fill="#66a7d3"/><path d="m194.55 256a91.453 91.453 0 0 1 76.458-90.217 92 92 0 0 0 -15.008-1.233c-.22 0-.45 0-.67.01a91.445 91.445 0 0 0 -1.1 182.87c.59.01 1.18.02 1.77.02a92.121 92.121 0 0 0 15-1.231 91.463 91.463 0 0 1 -76.45-90.219z" fill="#9fba7f"/><path d="m239.515 278.413-27.954-28.823-8.614 8.354 32.2 33.215a5.963 5.963 0 0 0 4.253 1.841h.046a6.013 6.013 0 0 0 4.242-1.776l61.3-61.308-8.484-8.49z" fill="#e87187"/><g fill="#fff"><path d="m133 207h-12v31.817a234.132 234.132 0 0 0 29.074 112.983l10.526-5.8a222.121 222.121 0 0 1 -27.6-107.183z"/><path d="m121 176h12v13h-12z"/></g></svg>