<svg id="Layer_1" height="512" viewBox="0 0 512 512" width="512" xmlns="http://www.w3.org/2000/svg" data-name="Layer 1"><circle cx="256" cy="256" fill="#eb7288" r="228.93"/><path d="m67.07 256c0-119.7 91.859-217.917 208.93-228.051-6.593-.57-13.26-.879-20-.879-126.44 0-228.93 102.49-228.93 228.93s102.49 228.93 228.93 228.93c6.74 0 13.407-.309 20-.879-117.071-10.134-208.93-108.351-208.93-228.051z" fill="#d3627a"/><g id="_Path_" data-name=" Path "><path d="m255.45 130.28c-34.98 0-67.94 11.85-96.86 28.31-65.91 37.52-110.83 99.03-110.83 99.03s92.99 127.34 207.69 127.34c36.09 0 70.04-12.61 99.61-29.9 64.41-37.63 108.08-97.44 108.08-97.44s-92.98-127.34-207.69-127.34z" fill="#dedfe6"/></g><path d="m255.45 143.69a113.925 113.925 0 1 0 113.94 113.93 113.495 113.495 0 0 0 -113.94-113.93z" fill="#74b4e8"/><path d="m255.45 214.94a42.695 42.695 0 1 0 42.69 42.68 42.522 42.522 0 0 0 -42.69-42.68z" fill="#9fe2e0"/><path d="m77.76 257.62s44.92-61.51 110.83-99.03c24.741-14.082 52.441-24.782 81.832-27.582-4.946-.469-9.936-.728-14.972-.728-34.98 0-67.94 11.85-96.86 28.31-65.91 37.52-110.83 99.03-110.83 99.03s92.99 127.34 207.69 127.34c5.053 0 10.062-.256 15.025-.728-107.709-10.223-192.715-126.612-192.715-126.612z" fill="#c0c3ce"/><path d="m171.52 257.62a113.979 113.979 0 0 1 98.937-112.945 114.837 114.837 0 0 0 -15.007-.985 113.93 113.93 0 1 0 0 227.86 115.059 115.059 0 0 0 15.01-.982 113.945 113.945 0 0 1 -98.94-112.948z" fill="#66a7d3"/><path d="m242.77 257.62a42.705 42.705 0 0 1 27.692-39.959 42.684 42.684 0 1 0 -.007 79.933 42.7 42.7 0 0 1 -27.685-39.974z" fill="#8ececb"/><path d="m256 21.069a234.931 234.931 0 0 0 -166.121 401.053 234.931 234.931 0 0 0 332.242-332.244 233.392 233.392 0 0 0 -166.121-68.809zm-157.636 392.567a222.926 222.926 0 0 1 -4.183-310.971l315.154 315.154a222.926 222.926 0 0 1 -310.971-4.183zm319.455-4.3-315.154-315.155a222.928 222.928 0 0 1 315.154 315.154z" fill="#b7516c"/></svg>