<svg id="Layer_1" height="512" viewBox="0 0 512 512" width="512" xmlns="http://www.w3.org/2000/svg" data-name="Layer 1"><g id="_Path_" data-name=" Path "><path d="m18 438h476v46h-476z" fill="#dedfe6"/><g fill="#c9cad1"><path d="m43 183h425v53h-425z"/><path d="m50 394v43.52.48h412v-.48-43.52z"/></g></g><path d="m452.31 182.95h-392.62l196.31-154.45z" fill="#dedfe6"/><circle cx="256" cy="120.17" fill="#bad79d" r="49.06"/><g fill="#dedfe6"><path d="m428.77 393.84v.59h-40.91v-.59-157.89h40.91z"/><path d="m329.78 393.84v.59h-40.91v-.59-157.89h40.91z"/><path d="m223.13 393.84v.59h-40.91v-.59-157.89h40.91z"/><path d="m124.14 393.84v.59h-40.91v-.59-157.89h40.91z"/></g><path d="m18 438h30v46h-30z" fill="#c5c7d1"/><path d="m43 183h30v53h-30z" fill="#aeb0b7"/><path d="m80 394h-30v43.52.48h30v-.48z" fill="#aeb0b7"/><path d="m256 28.5-196.31 154.45h30l181.31-142.648z" fill="#c5c7d1"/><path d="m236.94 120.17a49.074 49.074 0 0 1 34.06-46.715 49.061 49.061 0 1 0 0 93.429 49.083 49.083 0 0 1 -34.06-46.714z" fill="#9cb57f"/><path d="m256 100.736a7.21 7.21 0 0 1 7.13 7.264h12a18.98 18.98 0 0 0 -13.13-18.419v-7.581h-12v7.581a19.122 19.122 0 0 0 6 37.281 7.132 7.132 0 1 1 -7.13 7.138h-12a19.584 19.584 0 0 0 13.13 18.143v8.857h12v-8.857a19.122 19.122 0 0 0 -6-37.281 7.063 7.063 0 1 1 0-14.126z" fill="#788e5c"/><path d="m62 199h15v12h-15z" fill="#fff"/><path d="m89 199h95v12h-95z" fill="#fff"/></svg>