<svg id="Layer_1" height="512" viewBox="0 0 512 512" width="512" xmlns="http://www.w3.org/2000/svg" data-name="Layer 1"><g id="_Path_" data-name=" Path "><path d="m468.77 243.85-212.77 243.86 115.15-243.86h.02z" fill="#bbfffc"/><path d="m140.85 244 115.15 243.86 115.15-243.86z" fill="#8fc6c3"/><path d="m140.85 243.85 115.15 243.86-212.77-243.86h97.6z" fill="#bbfffc"/></g><path d="m429.13 146.89 39.64 96.96h-97.6l57.58-96.96z" fill="#9fe2e0"/><path d="m428.75 146.89-57.58 96.96h-.02l-57.57-96.96z" fill="#bbfffc"/><path d="m313.58 146.89 57.57 96.96h-115.14z" fill="#9fe2e0"/><path d="m313.58 146.89-57.57 96.96h-.02l-57.57-96.96z" fill="#bbfffc"/><path d="m198.42 146.89 57.57 96.96h-115.14z" fill="#9fe2e0"/><path d="m198.42 146.89-57.57 96.96h-.02l-57.58-96.96z" fill="#bbfffc"/><path d="m83.25 146.89 57.58 96.96h-97.6l39.64-96.96z" fill="#9fe2e0"/><path d="m79.23 243.85h-36l212.77 243.86-42.465-89.93z" fill="#b5e2de"/><path d="m104.346 182.415-21.096-35.525h-.38l-39.64 96.96h36z" fill="#8fc6c3"/><g fill="#d4e1f4"><path d="m249 18h12v70h-12z"/><path d="m151.839 36.684h12v65.733h-12z" transform="matrix(.901 -.434 .434 .901 -14.546 75.358)"/><path d="m320.198 63.55h65.733v12h-65.733z" transform="matrix(.434 -.901 .901 .434 137.25 357.501)"/></g><path d="m196.687 265.297h12v17.569h-12z" fill="#fff" transform="matrix(.969 -.249 .249 .969 -61.831 59.063)"/><path d="m214.658 296.399h12v96.185h-12z" fill="#fff" transform="matrix(.968 -.251 .251 .968 -79.427 66.438)"/></svg>