<svg id="Layer_1" height="512" viewBox="0 0 512 512" width="512" xmlns="http://www.w3.org/2000/svg" data-name="Layer 1"><g id="_Path_" data-name=" Path "><path d="m292 117h-72l-83 87.77v244.23h238v-244.23z" fill="#b3d1e7"/></g><path d="m197.33 247.75h117.34v154h-117.34z" fill="#74b4e8"/><path d="m136.51 447.25h238.98v54h-238.98z" fill="#d4e1f4"/><path d="m250 117h-30l-83 87.77v244.23h30v-244.23z" fill="#9fbfd3"/><path d="m197.33 247.75h30v154h-30z" fill="#66a7d3"/><path d="m136.51 447.25h30v54h-30z" fill="#bccee2"/><path d="m240 11h32v140h-32z" fill="#8e93a9"/><path d="m272 151.42a34.692 34.692 0 1 1 -16-3.91 34.625 34.625 0 0 1 16 3.91z" fill="#a6c8dd"/><circle cx="256" cy="182.17" fill="#e0eff9" r="15.44"/><g fill="#5696ba"><path d="m237 277h38v12h-38z"/><path d="m237 305h38v12h-38z"/><path d="m237 333h38v12h-38z"/><path d="m237 361h38v12h-38z"/></g><path d="m163 240h12v15h-12z" fill="#fff"/><path d="m163 267h12v105h-12z" fill="#fff"/></svg>