<svg id="Layer_1" height="512" viewBox="0 0 512 512" width="512" xmlns="http://www.w3.org/2000/svg" data-name="Layer 1"><g id="_Path_" data-name=" Path "><path d="m446.33 18.95v474.1h-380.66v-474.1zm-93.35 435.31v-159.51h-193.96v159.51zm0-217.97v-178.55h-193.96v178.55z" fill="#d4e1f4"/><g fill="#eb7288"><path d="m159.02 294.75h193.96v159.51h-193.96z"/><path d="m159.02 57.74h193.96v178.55h-193.96z"/></g></g><g fill="#9fbfd3"><path d="m374.23 401.01h51.97v54.38h-51.97z"/><path d="m374.23 319.44h51.97v54.38h-51.97z"/><path d="m374.23 237.87h51.97v54.38h-51.97z"/><path d="m374.23 147.24h51.97v54.38h-51.97z"/><path d="m374.23 56.61h51.97v54.38h-51.97z"/></g><path d="m65.67 18.95h30v474.1h-30z" fill="#bccee2"/><path d="m159.02 294.75h30v159.51h-30z" fill="#d3627a"/><path d="m159.02 57.74h30v178.55h-30z" fill="#d3627a"/><path d="m85.8 401.01h51.97v54.38h-51.97z" fill="#9fbfd3"/><path d="m85.8 319.44h51.97v54.38h-51.97z" fill="#9fbfd3"/><path d="m85.8 237.87h51.97v54.38h-51.97z" fill="#9fbfd3"/><path d="m85.8 147.24h51.97v54.38h-51.97z" fill="#9fbfd3"/><path d="m85.8 56.61h51.97v54.38h-51.97z" fill="#9fbfd3"/><path d="m177 75h12v15h-12z" fill="#fff"/><path d="m177 102h12v95h-12z" fill="#fff"/></svg>