<svg id="Layer_1" height="512" viewBox="0 0 512 512" width="512" xmlns="http://www.w3.org/2000/svg" data-name="Layer 1"><path d="m491.5 75h-62.5v12h56v119h-260.272c-3.314 0-5.728 2.96-5.728 6.273v67.727h12v-62h260.5a5.364 5.364 0 0 0 5.5-5.727v-131.45c0-3.313-2.187-5.823-5.5-5.823z" fill="#9fbfd3"/><g id="_Path_" data-name=" Path "><path d="m385.75 22-40 118h59.25v-118z" fill="#f5db9f"/><path d="m385.75 22.29-40 117.34h-40l40-117.34z" fill="#efeffb"/><path d="m345.75 22.29-40 117.34h-40l40-117.34z" fill="#f5db9f"/><path d="m305.75 22.29-40 117.34h-40l40-117.34z" fill="#efeffb"/><path d="m265.75 22.29-40 117.34h-40l40-117.34z" fill="#f5db9f"/><path d="m187 308h77v29h-77z" fill="#b3d1e7"/><path d="m225.75 22.29-40 117.34h-40l40-117.34z" fill="#efeffb"/><path d="m185.75 22.29-40 117.34h-40l40-117.34z" fill="#f5db9f"/><path d="m145.75 22.29-40 117.34h-40l40-117.34z" fill="#efeffb"/><path d="m47 22v118h18.75l40-118z" fill="#f5db9f"/></g><path d="m405 48h26v66h-26z" fill="#b6c7db"/><path d="m195.5 278.46h60v29.96h-60z" fill="#d4e1f4"/><path d="m20.5 47.84h26.34v66.24h-26.34z" fill="#b6c7db"/><path d="m186.91 336.42h77.18v153.29h-77.18z" fill="#8e93a9"/><path d="m187 308v28.42h29.91.09v-28z" fill="#9fbfd3"/><path d="m195.5 278.46v29.54.42h21.5l8.5-.42v-29.54z" fill="#b6c7db"/><path d="m216.91 336.42h-29.91-.09v153.29h30z" fill="#7d8291"/><g fill="#fff"><path d="m204 356h12v15h-12z"/><path d="m204 383h12v75h-12z"/></g></svg>