<svg id="Layer_1" height="512" viewBox="0 0 512 512" width="512" xmlns="http://www.w3.org/2000/svg" data-name="Layer 1"><g id="_Path_" fill="#f3ce7d" data-name=" Path "><path d="m423.57 71.55-71.59 71.59 74.03 2.45z"/><path d="m85.99 366.1 2.44 74.03 71.59-71.59z"/></g><g fill="#74b4e8"><path d="m440.39 257h25.75c0 56-21.86 108.41-61.55 148.1s-92.46 61.19-148.59 61.19a208.562 208.562 0 0 1 -140.12-53.37l-.12-.12 18.21-18.2.23.23a183.966 183.966 0 0 0 121.69 46.3c101.67 0 184.5-83.13 184.5-184.13z"/><path d="m395.72 99.4-18.29 18.29a183.509 183.509 0 0 0 -121.43-45.35c-101.67 0-184.39 82.66-184.39 184.66h-25.75c0-57 21.86-109.4 61.55-149.09a209.692 209.692 0 0 1 288.31-8.51z"/></g></svg>