<svg id="Layer_1" height="512" viewBox="0 0 512 512" width="512" xmlns="http://www.w3.org/2000/svg" data-name="Layer 1"><path d="m33 27.05v456.95h446zm103 225.7 129.26 147.25h-129.26z" fill="#b3c6dd"/><path d="m33 27.05v456.95h45v-410.74z" fill="#e1ebf9"/><path d="m169 400h96.26l-96.26-109.769z" fill="none"/><path d="m169 290.231 96.26 109.769h33l-129.26-147.25z" fill="#b3c6dd"/><path d="m33 27.05v456.95h33v-423.122z" fill="#d4e1f4"/><g fill="#9fb6cc"><path d="m33 429h19v12h-19z"/><path d="m33 399h28v12h-28z"/><path d="m33 369h19v12h-19z"/><path d="m33 339h28v12h-28z"/><path d="m33 309h19v12h-19z"/><path d="m33 279h28v12h-28z"/><path d="m33 249h19v12h-19z"/><path d="m33 219h28v12h-28z"/><path d="m33 189h19v12h-19z"/><path d="m33 159h28v12h-28z"/><path d="m33 129h19v12h-19z"/><path d="m33 99h28v12h-28z"/></g><path d="m109.616 153.469h12v16.532h-12z" fill="#fff" transform="matrix(.716 -.698 .698 .716 -80.081 126.693)"/><path d="m202.5 144.061h12v224.878h-12z" fill="#fff" transform="matrix(.716 -.698 .698 .716 -119.852 218.426)"/></svg>