<svg id="Layer_1" height="512" viewBox="0 0 512 512" width="512" xmlns="http://www.w3.org/2000/svg" data-name="Layer 1"><g id="_Path_" data-name=" Path "><path d="m390 163.14v-125.14h-49v86.42l-85.01-67.87-236.995 189.18 47.292 27.96 189.712-151.98 189.711 151.98 47.08-27.96z" fill="#a5adc4"/></g><path d="m256 121.71-159.565 127.79.565.78v223.72h318v-224.82l.036-.11z" fill="#dfe8f4"/><path d="m309.04 473.74v.32h-106.08v-.32-119.34h106.08z" fill="#eb7288"/><circle cx="256" cy="278.45" fill="#eb7288" r="37.37"/><path d="m18.995 245.73 47.292 27.96 20.567-16.477-46.82-28.277z" fill="#8c95aa"/><path d="m126.435 249.5 144.565-115.777-15-12.013-159.565 127.79.565.78v223.72h30v-223.72z" fill="#c5cfd8"/><path d="m232.96 354.4h-30v119.34.32h30v-.32z" fill="#d3627a"/><path d="m256 315.82a37.217 37.217 0 0 0 15-3.142 37.372 37.372 0 0 1 0-68.457 37.371 37.371 0 1 0 -15 71.6z" fill="#d3627a"/><g fill="#fff"><path d="m128 270h12v15h-12z"/><path d="m128 297h12v99h-12z"/></g></svg>