<svg id="Layer_1" height="512" viewBox="0 0 512 512" width="512" xmlns="http://www.w3.org/2000/svg" data-name="Layer 1"><path d="m273 105.167a17.5 17.5 0 1 0 -23 16.6v96.233h12v-96.594a17.5 17.5 0 0 0 11-16.239z" fill="#b3d1e7"/><path d="m84 216h344v56h-344z" fill="#d4e1f4"/><path d="m84 216h30v56h-30z" fill="#bfcddd"/><g id="_Path_" fill="#d4e1f4" data-name=" Path "><path d="m465.61 415.57v31.93h-101.55v-31.93-.48h101.55z"/><path d="m147.94 415.57v31.93h-101.55v-31.93-.48h101.55z"/></g><path d="m18 270h476v145h-476z" fill="#a8cee5"/><path d="m187.26 325.12h137.48v34.37h-137.48z" fill="#bad79d"/><path d="m128.93 325.12a17.185 17.185 0 1 1 -17.18 17.18 17.186 17.186 0 0 1 17.18-17.18z" fill="#eb7288"/><path d="m76.85 325.12a17.185 17.185 0 1 1 -17.18 17.18 17.186 17.186 0 0 1 17.18-17.18z" fill="#eb7288"/><path d="m18 270h30v145h-30z" fill="#9dbbce"/><path d="m187 325h30v34h-30z" fill="#9cb77e"/><path d="m381 325h12v34h-12z" fill="#74b4e8"/><path d="m412 325h12v34h-12z" fill="#74b4e8"/><path d="m444 325h12v34h-12z" fill="#74b4e8"/><path d="m297.225 82.767a23.762 23.762 0 0 1 0 33.578l8.511 8.459a35.77 35.77 0 0 0 -.028-50.528z" fill="#d4e1f4"/><path d="m325.06 68.742a43.6 43.6 0 0 1 0 61.575l8.487 8.485a55.615 55.615 0 0 0 0-78.544z" fill="#d4e1f4"/><path d="m206.266 74.256a35.728 35.728 0 0 0 .028 50.526l8.481-8.49a23.728 23.728 0 0 1 0-33.577z" fill="#d4e1f4"/><path d="m186.94 68.742-8.486-8.484a55.615 55.615 0 0 0 0 78.544l8.487-8.485a43.6 43.6 0 0 1 -.001-61.575z" fill="#d4e1f4"/><g fill="#a3b5c6"><path d="m173 234h12v21h-12z"/><path d="m142 234h12v21h-12z"/><path d="m111 234h12v21h-12z"/><path d="m204 234h12v21h-12z"/><path d="m235 234h12v21h-12z"/><path d="m265 234h12v21h-12z"/><path d="m296 234h12v21h-12z"/><path d="m327 234h12v21h-12z"/><path d="m358 234h12v21h-12z"/><path d="m389 234h12v21h-12z"/></g><path d="m41 291h15v12h-15z" fill="#fff"/><path d="m68 291h115v12h-115z" fill="#fff"/></svg>