<svg id="Layer_1" height="512" viewBox="0 0 512 512" width="512" xmlns="http://www.w3.org/2000/svg" data-name="Layer 1"><g id="_Path_" data-name=" Path "><path d="m31.62 224.12h65.82v221.88h-65.82z" fill="#74b4e8"/><path d="m97 224v222h268v-222z" fill="#eb7288"/></g><path d="m261.1 66a78.66 78.66 0 1 1 -78.66 78.66 78.663 78.663 0 0 1 78.66-78.66z" fill="#8e93a9"/><path d="m111.16 114.48a54.42 54.42 0 1 1 -54.42 54.42 54.423 54.423 0 0 1 54.42-54.42z" fill="#8e93a9"/><path d="m480.38 234.61v200.91l-115.45-57.8h-.05v-85.26z" fill="#d4e1f4"/><path d="m32 224h30v222h-30z" fill="#63a5d3"/><path d="m212.44 144.66a78.669 78.669 0 0 1 63.66-77.214 78.66 78.66 0 1 0 0 154.428 78.669 78.669 0 0 1 -63.66-77.214z" fill="#7a7f93"/><path d="m86.74 168.9a54.431 54.431 0 0 1 39.422-52.31 54.421 54.421 0 1 0 0 104.619 54.439 54.439 0 0 1 -39.422-52.309z" fill="#7a7f93"/><path d="m261.1 116.59a28.07 28.07 0 1 1 -28.07 28.07 28.065 28.065 0 0 1 28.07-28.07z" fill="#b3d1e7"/><path d="m111.16 147.21a21.69 21.69 0 1 1 -21.68 21.69 21.689 21.689 0 0 1 21.68-21.69z" fill="#b3d1e7"/><g fill="#5594b7"><path d="m55 267h23v12h-23z"/><path d="m55 298h23v12h-23z"/><path d="m55 329h23v12h-23z"/><path d="m55 360h23v12h-23z"/><path d="m55 391h23v12h-23z"/></g><path d="m122 249h15v12h-15z" fill="#fdfeff"/><path d="m149 249h95v12h-95z" fill="#fdfeff"/><path d="m289.844 255.713a19.712 19.712 0 1 0 19.712 19.711 19.734 19.734 0 0 0 -19.712-19.711z" fill="#f3ce7d"/></svg>