<svg id="Layer_1" height="512" viewBox="0 0 512 512" width="512" xmlns="http://www.w3.org/2000/svg" data-name="Layer 1"><g id="_Path_" data-name=" Path "><path d="m43 85h426v311h-426z" fill="#d4e1f4"/></g><path d="m83 125h346v271h-346z" fill="#9fe2e0"/><path d="m83 125h30v271h-30z" fill="#8ececb"/><path d="m324.75 362.27-21.75 20h-95l-21.75-20h-163.3v64.81h466.1v-64.81z" fill="#8e93a9"/><path d="m22.95 362.27h30v64.81h-30z" fill="#7d8291"/><g fill="#72afaa"><path d="m140 159h98v12h-98z"/><path d="m140 191h231v12h-231z"/><path d="m140 223h231v12h-231z"/><path d="m140 255h231v12h-231z"/><path d="m140 287h231v12h-231z"/><path d="m140 319h231v12h-231z"/></g><path d="m106 157h12v15h-12z" fill="#fff"/><path d="m106 183h12v96h-12z" fill="#fff"/></svg>