<svg id="Layer_1" height="512" viewBox="0 0 512 512" width="512" xmlns="http://www.w3.org/2000/svg" data-name="Layer 1"><g id="_Path_" data-name=" Path "><path d="m431.86 315.89-53.28 53.28-60.83-60.83-.51-.51 53.27-53.28z" fill="#eb7288"/><path d="m160.505 92.114h75.346v86.751h-75.346z" fill="#eb7288" transform="matrix(.707 -.707 .707 .707 -37.761 179.817)"/><path d="m378.58 369.17-78.6 78.6a168.09 168.09 0 1 1 -237.71-237.72l78.6-78.59 61.34 61.34-78.6 78.6a81.335 81.335 0 0 0 115.03 115.02l78.6-78.59.51.51z" fill="#b0b5ca"/></g><path d="m337.239 327.829 10.001-9.999 43.273-43.281-20.003-19.999-53.27 53.28.51.51z" fill="#d3627a"/><path d="m170.87 141.46 43.273-43.281-20.003-19.999-53.27 53.28 19.999 19.999z" fill="#d3627a"/><path d="m43.03 338.91a167.536 167.536 0 0 1 49.24-118.86l68.6-68.591-20-20-78.6 78.59a168.105 168.105 0 0 0 80.8 282.6 168.266 168.266 0 0 1 -100.04-153.739z" fill="#9098af"/><path d="m268.64 396.42 68.6-68.591-19.49-19.489-.51-.51-78.6 78.59a81.062 81.062 0 0 1 -67.783 23.152 81.341 81.341 0 0 0 97.783-13.152z" fill="#9098af"/><g fill="#d4e1f4"><path d="m273.051 69.819c1.059-1.059 1.638-1.124 3.554-1.337a16.4 16.4 0 0 0 15.5-15.495c.213-1.918.277-2.5 1.337-3.556s1.639-1.124 3.555-1.336a16.124 16.124 0 0 0 10.716-4.779l-8.484-8.484c-1.06 1.059-1.638 1.123-3.554 1.335a16.393 16.393 0 0 0 -15.5 15.495c-.214 1.918-.278 2.5-1.338 3.558s-1.639 1.124-3.556 1.336a16.4 16.4 0 0 0 -15.5 15.5c-.213 1.919-.277 2.5-1.34 3.56s-1.641 1.126-3.56 1.34a16.132 16.132 0 0 0 -10.717 4.781l8.484 8.485c1.063-1.062 1.642-1.126 3.561-1.34a16.4 16.4 0 0 0 15.5-15.5c.216-1.922.28-2.501 1.342-3.563z"/><path d="m248.978 45.744c1.059-1.058 1.637-1.123 3.554-1.336a16.395 16.395 0 0 0 15.5-15.495c.213-1.917.278-2.5 1.339-3.557s1.638-1.124 3.554-1.335a16.133 16.133 0 0 0 10.716-4.778l-8.485-8.486c-1.059 1.059-1.637 1.124-3.554 1.337a16.395 16.395 0 0 0 -15.5 15.5c-.213 1.917-.278 2.5-1.339 3.557s-1.638 1.124-3.554 1.335a16.4 16.4 0 0 0 -15.5 15.5c-.214 1.918-.278 2.5-1.34 3.559s-1.642 1.127-3.56 1.341a16.132 16.132 0 0 0 -10.718 4.781l8.484 8.485c1.063-1.062 1.642-1.126 3.561-1.34a16.408 16.408 0 0 0 15.5-15.5c.216-1.926.28-2.505 1.342-3.568z"/><path d="m319.745 60.241a16.4 16.4 0 0 0 -15.5 15.5c-.214 1.918-.277 2.5-1.338 3.557s-1.639 1.124-3.555 1.337a16.4 16.4 0 0 0 -15.5 15.5c-.213 1.919-.278 2.5-1.339 3.561s-1.642 1.125-3.56 1.338a16.138 16.138 0 0 0 -10.72 4.783l8.487 8.484c1.061-1.063 1.64-1.127 3.559-1.34a16.4 16.4 0 0 0 15.5-15.5c.214-1.919.278-2.5 1.34-3.56s1.639-1.124 3.556-1.336a16.4 16.4 0 0 0 15.5-15.5c.214-1.918.277-2.5 1.338-3.558s1.637-1.123 3.554-1.336a16.124 16.124 0 0 0 10.717-4.778l-8.484-8.488c-1.061 1.06-1.639 1.124-3.555 1.336z"/><path d="m444.476 241.243c1.06-1.059 1.638-1.123 3.554-1.336a16.395 16.395 0 0 0 15.5-15.5c.214-1.918.278-2.5 1.338-3.557s1.639-1.124 3.555-1.335a16.129 16.129 0 0 0 10.716-4.779l-8.485-8.484c-1.059 1.058-1.637 1.123-3.553 1.335a16.393 16.393 0 0 0 -15.5 15.495c-.214 1.918-.278 2.5-1.338 3.558s-1.639 1.123-3.555 1.335a16.4 16.4 0 0 0 -15.5 15.5c-.214 1.919-.278 2.5-1.34 3.56s-1.641 1.126-3.56 1.34a16.13 16.13 0 0 0 -10.717 4.781l8.484 8.485c1.063-1.062 1.642-1.126 3.561-1.34a16.409 16.409 0 0 0 15.5-15.5c.214-1.916.278-2.495 1.34-3.558z"/><path d="m420.4 217.169c1.06-1.059 1.638-1.123 3.555-1.336a16.395 16.395 0 0 0 15.5-15.5c.213-1.917.277-2.5 1.339-3.557s1.638-1.124 3.554-1.336a16.133 16.133 0 0 0 10.716-4.777l-8.485-8.486c-1.059 1.059-1.638 1.124-3.555 1.337a16.4 16.4 0 0 0 -15.5 15.5c-.213 1.917-.277 2.495-1.338 3.556s-1.638 1.124-3.554 1.336a16.4 16.4 0 0 0 -15.5 15.5c-.213 1.918-.278 2.5-1.339 3.559s-1.642 1.127-3.561 1.341a16.132 16.132 0 0 0 -10.717 4.781l8.485 8.481c1.062-1.061 1.642-1.126 3.56-1.339a16.406 16.406 0 0 0 15.5-15.5c.216-1.918.28-2.498 1.34-3.56z"/><path d="m491.17 231.666a16.395 16.395 0 0 0 -15.5 15.5c-.214 1.918-.278 2.5-1.338 3.557s-1.639 1.124-3.555 1.337a16.4 16.4 0 0 0 -15.5 15.5c-.214 1.919-.278 2.5-1.341 3.56s-1.64 1.127-3.559 1.34a16.14 16.14 0 0 0 -10.719 4.782l8.486 8.485c1.062-1.063 1.641-1.127 3.56-1.34a16.406 16.406 0 0 0 15.5-15.5c.214-1.919.278-2.5 1.34-3.561s1.638-1.124 3.555-1.336a16.4 16.4 0 0 0 15.5-15.5c.213-1.918.277-2.5 1.337-3.557s1.638-1.123 3.555-1.336a16.123 16.123 0 0 0 10.717-4.779l-8.486-8.484c-1.058 1.056-1.636 1.12-3.552 1.332z"/></g><path d="m29.033 329h12a138.29 138.29 0 0 1 41.031-99.1l-8.484-8.462a150.507 150.507 0 0 0 -44.547 107.562z" fill="#fff"/><path d="m87.01 201.54h17.759v11.999h-17.759z" fill="#fff" transform="matrix(.707 -.707 .707 .707 -118.667 128.591)"/></svg>